<svg xmlns="http://www.w3.org/2000/svg" viewBox="0 0 274 223"><path fill="#000" d="M273.695 26.712a112.107 112.107 0 0 1-32.215 8.832c11.581-6.941 20.475-17.934 24.662-31.031a112.28 112.28 0 0 1-35.617 13.611C220.294 7.223 205.716.411 189.585.411c-30.978 0-56.091 25.113-56.091 56.088 0 4.397.496 8.677 1.452 12.782-46.615-2.339-87.944-24.669-115.609-58.604-4.828 8.284-7.594 17.919-7.594 28.198 0 19.459 9.902 36.627 24.952 46.686a55.85 55.85 0 0 1-25.405-7.016c-.004.234-.005.469-.005.705 0 27.176 19.334 49.846 44.993 54.999a56.205 56.205 0 0 1-25.33.961c7.138 22.283 27.852 38.5 52.396 38.953-19.196 15.043-43.381 24.01-69.659 24.01-4.527 0-8.992-.266-13.38-.783 24.822 15.914 54.305 25.199 85.979 25.199 103.169 0 159.585-85.467 159.585-159.586 0-2.432-.055-4.851-.162-7.256 10.959-7.908 20.468-17.787 27.988-29.035z"></path></svg>
