<svg width="94" height="38" viewBox="0 0 94 38" fill="none" xmlns="../../../../../../../../../../www.w3.org/2000/svg.html">
<path d="M17.1756 4.89914C16.0739 6.18268 14.3112 7.19505 12.5485 7.05043C12.3281 5.31494 13.1911 3.47098 14.201 2.33206C15.3027 1.01237 17.2307 0.0723121 18.7914 0C18.975 1.8078 18.2589 3.57945 17.1756 4.89914ZM18.773 7.39391C16.2208 7.24929 14.0358 8.82207 12.8239 8.82207C11.5937 8.82207 9.73917 7.46622 7.71941 7.50238C5.09372 7.53853 2.65164 9.00285 1.31126 11.3349C-1.44297 15.999 0.595159 22.9049 3.25757 26.7012C4.56124 28.5814 6.12196 30.6422 8.17845 30.5699C10.1248 30.4976 10.8959 29.3225 13.2462 29.3225C15.6148 29.3225 16.2942 30.5699 18.3507 30.5338C20.4806 30.4976 21.821 28.6537 23.1247 26.7736C24.612 24.6403 25.2179 22.5614 25.2546 22.4529C25.2179 22.4167 21.1417 20.8801 21.1049 16.2521C21.0682 12.3834 24.3182 10.5395 24.4651 10.431C22.6289 7.75547 19.7645 7.46622 18.773 7.39391ZM33.5173 2.15128V30.3349H37.9608V20.6993H44.1119C49.7305 20.6993 53.6782 16.903 53.6782 11.4072C53.6782 5.91151 49.8039 2.15128 44.2588 2.15128H33.5173ZM37.9608 5.8392H43.0836C46.9395 5.8392 49.1429 7.86394 49.1429 11.4253C49.1429 14.9867 46.9395 17.0295 43.0653 17.0295H37.9608V5.8392ZM61.794 30.5519C64.5849 30.5519 67.1739 29.1598 68.349 26.9543H68.4408V30.3349H72.5538V16.3064C72.5538 12.2388 69.2487 9.61751 64.1626 9.61751C59.4437 9.61751 55.955 12.275 55.8265 15.9267H59.8293C60.1598 14.1912 61.794 13.0523 64.0341 13.0523C66.7516 13.0523 68.2756 14.2997 68.2756 16.5956V18.1503L62.7304 18.4757C57.5708 18.7831 54.7799 20.862 54.7799 24.4776C54.7799 28.1294 57.6626 30.5519 61.794 30.5519ZM62.9875 27.2074C60.6188 27.2074 59.1132 26.0866 59.1132 24.3692C59.1132 22.5975 60.5637 21.5671 63.3363 21.4044L68.2756 21.097V22.6879C68.2756 25.3273 65.9987 27.2074 62.9875 27.2074ZM78.0439 38C82.3772 38 84.4153 36.373 86.1964 31.4377L94 9.88868H89.4831L84.2501 26.5385H84.1582L78.9252 9.88868H74.2798L81.808 30.4072L81.404 31.6546C80.7246 33.7697 79.623 34.5833 77.6583 34.5833C77.3094 34.5833 76.63 34.5471 76.3546 34.5109V37.8915C76.6117 37.9638 77.7134 38 78.0439 38Z" fill="black"/>
</svg>
