<svg width="52" height="52" viewBox="0 0 52 52" fill="none" xmlns="../../../../../../../../../../www.w3.org/2000/svg.html">
<path d="M46.8 0H5.2C2.34 0 0 2.34 0 5.2V46.8C0 49.66 2.34 52 5.2 52H46.8C49.66 52 52 49.66 52 46.8V5.2C52 2.34 49.66 0 46.8 0ZM15.6 44.2H7.8V20.8H15.6V44.2ZM11.7 16.38C9.1 16.38 7.02 14.3 7.02 11.7C7.02 9.1 9.1 7.02 11.7 7.02C14.3 7.02 16.38 9.1 16.38 11.7C16.38 14.3 14.3 16.38 11.7 16.38ZM44.2 44.2H36.4V30.42C36.4 28.3401 34.58 26.52 32.5 26.52C30.42 26.52 28.6 28.3401 28.6 30.42V44.2H20.8V20.8H28.6V23.92C29.9 21.84 32.76 20.28 35.1 20.28C40.04 20.28 44.2 24.44 44.2 29.38V44.2Z" fill="black"/>
</svg>
