<svg width="54" height="43" viewBox="0 0 54 43" fill="none" xmlns="../../../../../../../../../../www.w3.org/2000/svg.html">
<path d="M54 6.3369H51.8643C51.0713 6.3369 49.95 7.4875 49.95 8.22395V34.9205C49.95 35.6578 51.0713 36.6631 51.8643 36.6631H54V43H34.6501V36.6631H38.7001V8.59991H38.5016L29.044 43H21.7219L12.3863 8.59991H12.15V36.6631H16.2V43H0V36.6631H2.07457C2.92866 36.6631 4.05 35.6578 4.05 34.9205V8.22374C4.05 7.48729 2.92866 6.33669 2.07457 6.33669H0V0H20.2572L26.908 24.8946H27.0915L33.8034 0H54V6.3369Z" fill="black"/>
</svg>
