<svg width="233" height="26" fill="none" xmlns="../../../../../../../../../../www.w3.org/2000/svg.html"><g clip-path="url(#clip0)"><path d="M64.658 25.886v-26h11.3c1.282 0 2.447.228 3.495.798 1.048.456 1.98 1.14 2.68 2.053.699.912 1.398 1.824 1.747 2.85.466 1.027.7 2.167.7 3.194 0 1.14-.233 2.28-.583 3.307-.466 1.026-.932 1.939-1.748 2.85a7.654 7.654 0 0 1-2.68 1.94c-1.047.456-2.213.684-3.494.684h-5.36V26h-6.057v-.114zm6.174-13.57h5.01c.7 0 1.398-.342 1.864-.912.582-.57.816-1.483.816-2.623 0-.57-.117-1.14-.234-1.597-.116-.456-.349-.798-.698-1.14-.234-.342-.583-.456-.933-.684-.349-.228-.698-.228-1.048-.228h-4.777v7.184zm15.495 13.57v-26h12c1.281 0 2.446.228 3.494.798 1.048.456 1.981 1.14 2.796 2.053.816.798 1.398 1.824 1.864 2.85.466 1.027.7 2.167.7 3.194 0 .798-.117 1.596-.349 2.28-.234.799-.466 1.483-.816 2.053-.349.685-.815 1.255-1.398 1.825-.582.57-1.165 1.026-1.864 1.368l6.058 9.694h-6.873l-5.36-8.44h-3.96v8.44h-6.291v-.115zm6.174-13.57h5.592c.7 0 1.398-.342 1.864-1.026.583-.684.816-1.483.816-2.623 0-1.026-.35-1.939-.932-2.509-.582-.684-1.282-.912-1.98-.912h-5.476l.116 7.07zm17.825 13.57v-26h6.174v26h-6.174zm15.145-14.824v14.824h-6.175v-26h4.777l12.349 15.281V-.114h6.175v26h-4.893l-12.233-14.824zm41.008-5.93h-8.039v20.754h-6.174V5.132h-8.155V-.114h22.368v5.246zm1.514 20.754v-26h18.057v5.246h-11.882v5.588h9.786v4.903h-9.786v10.264h-6.175zm30.989-5.131c1.049 0 1.981-.229 2.68-.684a6.172 6.172 0 0 0 1.747-1.71 5.471 5.471 0 0 0 .933-2.396c.232-.912.232-1.824.232-2.85V-.116h6.175v13.343c0 1.825-.233 3.535-.699 5.018-.466 1.596-1.166 2.965-2.098 4.105-.932 1.14-2.213 2.053-3.611 2.737-1.399.684-3.262 1.026-5.243 1.026-2.097 0-3.961-.342-5.476-1.026-1.514-.684-2.679-1.71-3.612-2.851-.932-1.14-1.63-2.51-2.096-4.105a17.184 17.184 0 0 1-.7-4.904V-.114h6.175v13.342c0 1.026.116 1.939.349 2.85.233.913.582 1.712.932 2.396a6.165 6.165 0 0 0 1.748 1.71c.7.342 1.516.57 2.564.57zm15.029 5.131v-26h6.174v20.755H233v5.245h-18.989z" fill="#000"/><path d="M0 26.114L15.61-.114l15.612 26.228H0z" fill="#242424"/><path d="M14.097 26.114L29.707-.114l15.611 26.228H14.097z" fill="#242424"/><path d="M28.193 26.114L43.803-.114l15.612 26.228H28.193z" fill="#242424"/><path d="M14.097 26.114h17.125l-8.621-14.368-8.504 14.368z" fill="#000"/><path d="M28.193 26.114h17.125l-8.504-14.368-8.621 14.368z" fill="#000"/><path d="M28.193 26.115h3.03l-1.516-2.509-1.514 2.509z" fill="#000"/></g><defs><clipPath id="clip0"><path fill="#fff" d="M0 0h233v26H0z"/></clipPath></defs></svg>
