<svg width="237" height="40" fill="none" xmlns="../../../../../../../../../../www.w3.org/2000/svg.html"><path d="M22.71 31.147L29.216 0h6.701L33.34 12.236l.1.047c1.796-1.944 4.13-3.225 7.093-3.225 3.502 0 5.486 2.075 5.486 5.526 0 1.06-.195 2.65-.485 3.977l-2.625 12.592h-6.695l2.524-12.194c.195-.842.29-1.856.29-2.698 0-1.328-.58-2.252-2.086-2.252-2.139 0-4.42 2.472-5.297 6.491l-2.233 10.647H22.71zM58.8 39.809l4.663-22.314c.533-2.52 1.066-5.875 1.357-8.087h5.925l-.386 3.267h.095c1.796-2.294 4.42-3.622 7.093-3.622 4.905 0 6.896 3.67 6.896 7.772 0 7.422-5.149 14.755-13.017 14.755-1.653 0-3.158-.35-3.934-.794h-.148L65.5 39.803H58.8v.006zm9.569-13.695c.728.528 1.552.884 2.767.884 3.738 0 6.31-5.608 6.31-9.545 0-1.636-.634-3.355-2.672-3.355-2.329 0-4.515 2.52-5.291 6.32l-1.114 5.696zM120.248 3.752l-1.215 5.786h4.906l-.972 4.553h-4.905l-1.748 8.087c-.196.841-.338 1.814-.338 2.472 0 1.15.581 1.808 1.991 1.808.533 0 1.214 0 1.795-.089l-.776 4.725c-.972.308-2.572.444-3.982.444-3.981 0-5.925-1.902-5.925-4.683 0-1.103.142-2.294.486-3.8l1.89-8.97h-2.962l.971-4.552h2.963l.823-3.978 6.998-1.803zM137.229 31.147c.047-1.239.196-2.608.29-4.066h-.142c-2.091 3.355-4.906 4.505-7.382 4.505-4.029 0-6.607-2.917-6.607-7.203 0-8.175 3.863-15.022 16.004-15.022 2.672 0 5.486.486 7.335 1.02l-2.453 11.222c-.581 2.739-1.019 6.936-.972 9.544h-6.073zm2.02-16.96c-.533-.13-1.119-.178-1.7-.178-4.995 0-7.264 4.784-7.264 9.141 0 2.08.729 3.492 2.53 3.492 1.991 0 4.272-2.253 5.291-7.156l1.143-5.3zM160.823 3.752l-1.215 5.786h4.906l-.972 4.553h-4.906l-1.748 8.087c-.195.841-.337 1.814-.337 2.472 0 1.15.58 1.808 1.99 1.808.534 0 1.215 0 1.796-.089l-.777 4.725c-.971.308-2.571.444-3.981.444-3.982 0-5.925-1.902-5.925-4.683 0-1.103.142-2.294.486-3.8l1.896-8.97h-2.963l.972-4.552h2.962l.824-3.978 6.992-1.803zM203.565 31.148l3.058-14.584c.58-2.65.924-5.033 1.262-7.025h5.877l-.391 3.314h.095c2.044-2.561 4.758-3.8 7.72-3.8 3.739 0 5.682 2.164 5.682 5.566 0 1.062-.195 2.609-.438 3.8l-2.672 12.729h-6.701l2.577-12.414c.142-.753.243-1.59.243-2.384 0-1.369-.533-2.341-2.092-2.341-2.038 0-4.467 2.383-5.391 6.983l-2.092 10.162h-6.737v-.006zM56.104 6.764h.095c2.068 0 3.845-1.268 3.893-3.497 0-1.75-1.298-3.018-3.313-3.018-2.115 0-3.798 1.53-3.798 3.498-.006 1.796 1.245 3.017 3.123 3.017zM58.497 9.39h-6.529l-2.803 13.375c-.337 1.488-.48 2.668-.48 3.758 0 2.751 1.92 4.636 5.86 4.636 1.393 0 2.98-.13 3.94-.438l.77-4.678c-.574.09-1.25.09-1.777.09-1.392 0-1.973-.659-1.973-1.791 0-.658.142-1.619.338-2.449l2.654-12.502zM172.359 6.764h.1c2.062 0 3.846-1.268 3.893-3.497 0-1.75-1.297-3.018-3.318-3.018-2.115 0-3.792 1.53-3.792 3.498-.006 1.796 1.244 3.017 3.117 3.017zM174.758 9.39h-6.529l-2.803 13.375c-.338 1.488-.48 2.668-.48 3.758 0 2.751 1.92 4.636 5.866 4.636 1.392 0 2.98-.13 3.94-.438l.77-4.678c-.574.09-1.25.09-1.777.09-1.392 0-1.967-.659-1.967-1.791 0-.658.142-1.619.338-2.449l2.642-12.502zM14.724 14.222c-2.72-1.636-4.32-3-4.32-4.636 0-1.808 1.748-3.314 4.806-3.314 2.227-.041 4.502.925 6.132 1.802l1.274-5.288.023-.13c-1.214-.617-3.454-1.69-6.997-1.69C7.94.972 3.454 4.488 3.454 10.558c0 3.492 2.72 6.136 5.878 7.992 2.72 1.547 4.082 2.347 4.082 4.114 0 2.342-2.328 3.622-5.048 3.58-2.595 0-5.315-1.458-7.015-2.383L0 29.422c1.475.86 4.189 2.087 7.874 2.128 7.347 0 12.58-2.762 12.58-9.941 0-3.231-2.14-5.401-5.73-7.387zM99.475 14.222c-2.72-1.636-4.326-3-4.326-4.636 0-1.808 1.748-3.314 4.805-3.314 2.228-.041 4.504.925 6.139 1.802l1.274-5.288.023-.13c-1.214-.617-3.454-1.69-6.997-1.69-7.708 0-12.194 3.522-12.194 9.586 0 3.492 2.72 6.136 5.878 7.992 2.72 1.547 4.076 2.347 4.076 4.114 0 2.342-2.328 3.622-5.048 3.58-2.6 0-5.315-1.458-7.015-2.383l-1.339 5.561c1.475.86 4.189 2.087 7.874 2.128 7.347 0 12.579-2.762 12.579-9.941 0-3.225-2.139-5.395-5.73-7.381zM229.268 7.766c0-1.073.379-1.992 1.132-2.739a3.746 3.746 0 0 1 2.737-1.126c.705 0 1.357.172 1.949.516A3.826 3.826 0 0 1 237 7.772c0 1.067-.373 1.98-1.126 2.739-.752.753-1.665 1.132-2.737 1.132s-1.979-.38-2.737-1.132c-.759-.759-1.132-1.672-1.132-2.745zm.504 0c0 .925.326 1.72.983 2.377a3.23 3.23 0 0 0 2.376.984c.919 0 1.707-.332 2.364-.99a3.255 3.255 0 0 0 .978-2.37c0-.926-.326-1.72-.978-2.366a3.22 3.22 0 0 0-2.364-.978c-.93 0-1.724.326-2.382.972-.657.646-.977 1.44-.977 2.371zm1.884 2.23V5.554h1.807c.385 0 .717.124.989.373.273.25.409.575.409.973 0 .426-.136.753-.409.978-.272.225-.515.338-.722.338l1.19 1.772h-.728l-1.15-1.755h-.8V9.99h-.586v.006zm.586-2.283h1.221a.782.782 0 0 0 .551-.243.764.764 0 0 0 .249-.57.8.8 0 0 0-.249-.598.782.782 0 0 0-.551-.243h-1.221v1.654zM192.036 33.69h-4.237l-.557-3.699c-.93-.243-1.819-.61-2.654-1.102l-3.01 2.223-2.998-2.994 2.222-3.012c-.486-.83-.853-1.719-1.102-2.656l-3.698-.557v-4.239l3.698-.557c.249-.937.616-1.826 1.102-2.656l-2.222-3.011 2.998-3 3.01 2.223a10.51 10.51 0 0 1 2.654-1.103l.557-3.699h4.237l.556 3.7c.931.242 1.825.61 2.655 1.102l3.01-2.223 2.998 3-2.222 3.011c.486.83.853 1.72 1.096 2.656l3.697.557v4.24l-3.697.556a10.42 10.42 0 0 1-1.096 2.656l2.222 3.012-2.998 3-3.01-2.224a10.61 10.61 0 0 1-2.655 1.103l-.556 3.693zm-2.122-18.579a4.657 4.657 0 0 0-4.651 4.654 4.657 4.657 0 0 0 4.651 4.654 4.656 4.656 0 0 0 4.651-4.654 4.656 4.656 0 0 0-4.651-4.654z" fill="#000"/></svg>
