<svg width="98" height="41" viewBox="0 0 98 41" fill="none" xmlns="../../../../../../../../../../www.w3.org/2000/svg.html">
<path fill-rule="evenodd" clip-rule="evenodd" d="M98 21.1845C98 14.1779 94.6245 8.64917 88.1729 8.64917C81.694 8.64917 77.774 14.1779 77.774 21.1298C77.774 29.3681 82.4018 33.5283 89.044 33.5283C92.2834 33.5283 94.7334 32.7894 96.5845 31.7493V26.2753C94.7334 27.2059 92.6101 27.7807 89.9151 27.7807C87.2745 27.7807 84.9334 26.8501 84.634 23.6205H97.9456C97.9456 23.2647 98 21.8414 98 21.1845ZM84.5523 18.5844C84.5523 15.4916 86.4306 14.2052 88.1456 14.2052C89.8062 14.2052 91.5756 15.4916 91.5756 18.5844H84.5523Z" fill="black"/>
<path fill-rule="evenodd" clip-rule="evenodd" d="M67.2658 8.64917C64.598 8.64917 62.883 9.90818 61.9303 10.784L61.5764 9.08709H55.5875V41.0003L62.393 39.5497L62.4202 31.804C63.4002 32.5157 64.843 33.5283 67.2386 33.5283C72.1113 33.5283 76.5485 29.5871 76.5485 20.9109C76.5213 12.9736 72.0296 8.64917 67.2658 8.64917ZM65.6325 27.507C64.0264 27.507 63.0736 26.9322 62.4202 26.2206L62.393 16.0664C63.1008 15.2727 64.0808 14.7253 65.6325 14.7253C68.1097 14.7253 69.8246 17.517 69.8246 21.1024C69.8246 24.77 68.1369 27.507 65.6325 27.507Z" fill="black"/>
<path fill-rule="evenodd" clip-rule="evenodd" d="M53.0555 5.55607V0L46.2228 1.4506V7.03404L53.0555 5.55607Z" fill="black"/>
<path d="M53.0555 9.11401H46.2228V33.0626H53.0555V9.11401Z" fill="black"/>
<path fill-rule="evenodd" clip-rule="evenodd" d="M38.9008 11.1396L38.4653 9.11421H32.5853V33.0628H39.3908V16.8325C40.9969 14.725 43.7191 15.1082 44.563 15.4093V9.11421C43.6919 8.78577 40.5069 8.18363 38.9008 11.1396Z" fill="black"/>
<path fill-rule="evenodd" clip-rule="evenodd" d="M25.2898 3.1748L18.6476 4.59804L18.6204 26.5213C18.6204 30.572 21.642 33.5553 25.6709 33.5553C27.9031 33.5553 29.5364 33.1448 30.4347 32.6521V27.096C29.5636 27.4518 25.2625 28.7108 25.2625 24.6601V14.9438H30.4347V9.11406H25.2625L25.2898 3.1748Z" fill="black"/>
<path fill-rule="evenodd" clip-rule="evenodd" d="M6.88718 16.0664C6.88718 14.999 7.75828 14.5884 9.20105 14.5884C11.2699 14.5884 13.8832 15.2179 15.9521 16.3401V9.90818C13.6927 9.00498 11.4605 8.64917 9.20105 8.64917C3.67498 8.64917 0 11.5504 0 16.3948C0 23.9489 10.3444 22.7446 10.3444 26.0016C10.3444 27.2606 9.25549 27.6712 7.73106 27.6712C5.47163 27.6712 2.58609 26.7406 0.299442 25.4816V31.9956C2.83109 33.0904 5.38996 33.5557 7.73106 33.5557C13.3932 33.5557 17.286 30.7366 17.286 25.8374C17.2588 17.6812 6.88718 19.1318 6.88718 16.0664Z" fill="black"/>
</svg>
