<svg width="123" height="32" viewBox="0 0 123 32" fill="none" xmlns="../../../../../../../../../../www.w3.org/2000/svg.html">
<path d="M4.84546 15.1638C4.84546 16.9168 6.46702 18.3192 8.43918 18.3192C10.4113 18.3192 12.0329 16.9168 12.0329 15.1638C12.0329 13.4107 10.4113 12.0083 8.43918 12.0083C6.46702 12.0083 4.84546 13.4546 4.84546 15.1638ZM6.86145 15.1638C6.86145 14.3749 7.60649 13.7613 8.48301 13.7613C9.35952 13.7613 10.1046 14.3749 10.1046 15.1638C10.1046 15.9526 9.35952 16.5662 8.48301 16.5662C7.56266 16.61 6.86145 15.9526 6.86145 15.1638ZM12.0329 23.0962C12.0329 24.8493 13.6545 26.2517 15.6266 26.2517C17.5988 26.2517 19.2203 24.8493 19.2203 23.0962C19.2203 21.3432 17.5988 19.9408 15.6266 19.9408C13.6106 19.9408 12.0329 21.3432 12.0329 23.0962ZM14.0051 23.0962C14.0051 22.3074 14.7501 21.6938 15.6266 21.6938C16.5031 21.6938 17.2482 22.3512 17.2482 23.0962C17.2482 23.8851 16.5031 24.4987 15.6266 24.4987C14.7063 24.5425 14.0051 23.8851 14.0051 23.0962Z" fill="black"/>
<path fill-rule="evenodd" clip-rule="evenodd" d="M4.62622 15.1637C4.62622 13.3085 6.37246 11.7891 8.43907 11.7891C10.5036 11.7891 12.2519 13.2628 12.2519 15.1637C12.2519 17.0645 10.5036 18.5382 8.43907 18.5382C6.37455 18.5382 4.62622 17.0645 4.62622 15.1637ZM8.43907 12.2273C6.56135 12.2273 5.06448 13.6004 5.06448 15.1637C5.06448 16.7689 6.55927 18.1 8.43907 18.1C10.3189 18.1 11.8137 16.7689 11.8137 15.1637C11.8137 13.5584 10.3189 12.2273 8.43907 12.2273ZM8.4829 13.9804C7.69314 13.9804 7.08047 14.5274 7.08047 15.1637C7.08047 15.8124 7.66156 16.3858 8.47248 16.3472L8.47768 16.347H8.4829C9.27266 16.347 9.88533 15.7999 9.88533 15.1637C9.88533 14.5274 9.27266 13.9804 8.4829 13.9804ZM6.64221 15.1637C6.64221 14.2221 7.51962 13.5421 8.4829 13.5421C9.44617 13.5421 10.3236 14.2221 10.3236 15.1637C10.3236 16.1035 9.44934 16.7828 8.48812 16.7852C7.46078 16.8315 6.64221 16.0911 6.64221 15.1637ZM11.8137 23.0961C11.8137 21.1969 13.5163 19.7215 15.6265 19.7215C17.691 19.7215 19.4394 21.1953 19.4394 23.0961C19.4394 24.997 17.691 26.4707 15.6265 26.4707C13.562 26.4707 11.8137 24.997 11.8137 23.0961ZM15.6265 20.1598C13.7047 20.1598 12.2519 21.4893 12.2519 23.0961C12.2519 24.7014 13.7467 26.0325 15.6265 26.0325C17.5063 26.0325 19.0011 24.7014 19.0011 23.0961C19.0011 21.4909 17.5063 20.1598 15.6265 20.1598ZM15.6265 21.9128C14.8368 21.9128 14.2241 22.4599 14.2241 23.0961C14.2241 23.7449 14.8052 24.3183 15.6161 24.2797L15.6213 24.2794H15.6265C16.4163 24.2794 17.0289 23.7323 17.0289 23.0961C17.0289 22.4997 16.4116 21.9128 15.6265 21.9128ZM13.7858 23.0961C13.7858 22.1546 14.6632 21.4746 15.6265 21.4746C16.5945 21.4746 17.4672 22.2025 17.4672 23.0961C17.4672 24.036 16.593 24.7152 15.6317 24.7177C14.6044 24.764 13.7858 24.0236 13.7858 23.0961Z" fill="black"/>
<path d="M23.7781 10.8689C23.7781 10.0801 22.7263 9.77328 22.0689 10.2554C15.495 15.2953 8.87731 20.3353 2.30343 25.3753V18.1878V12.8849C2.30343 11.8769 2.39108 11.0442 3.2676 10.2992C3.57438 10.0362 4.01264 9.90476 4.36325 9.77328C4.4509 9.72945 5.28359 9.59798 4.88916 9.6418H4.97681C6.90515 10.2554 9.5347 10.5621 12.0328 10.5621C16.8536 10.5621 22.0251 9.4665 22.0251 7.05608V3.72531C22.0251 1.31489 16.8536 0.219238 12.0328 0.219238C7.21193 0.219238 2.04048 1.31489 2.04048 3.72531V7.01225C2.04048 7.58199 2.30343 8.06407 2.82934 8.50233C2.12813 8.85294 1.51457 9.33502 1.03248 9.94858C-0.194644 11.4825 0.331267 14.1559 0.331267 15.9527V27.3036C0.331267 28.0925 1.38309 28.3993 2.04048 27.9172C8.61436 22.8772 15.2321 17.8372 21.8059 12.7973V23.8852C21.8059 24.7617 21.9813 25.7697 21.6306 26.6024C21.1924 27.8295 19.4393 28.6184 18.2122 29.0567C13.9173 30.5467 8.70201 30.3714 4.58238 28.5308C3.4429 28.0048 2.47873 29.6264 3.57438 30.0208C8.13227 31.73 12.2519 31.9492 17.2481 31.1165C19.79 30.6782 23.6028 28.8814 23.7343 26.1203C23.9972 21.0365 23.7781 15.9527 23.7781 10.8689ZM12.0328 1.97227C17.2919 1.97227 20.0529 3.28705 20.0529 3.72531C20.0529 4.16357 17.2919 5.47834 12.0328 5.47834C6.77367 5.47834 4.01264 4.16357 4.01264 3.72531C4.01264 3.28705 6.77367 1.97227 12.0328 1.97227ZM4.01264 5.96043C5.94098 6.83695 9.05262 7.27521 12.0328 7.27521C15.0129 7.27521 18.1246 6.83695 20.0529 5.96043V7.05608C20.0529 7.49433 17.2919 8.80911 12.0328 8.80911C6.77367 8.80911 4.01264 7.49433 4.01264 7.05608V5.96043ZM34.4278 7.18755H26.2324V4.16357H45.9102V7.18755H37.7147V28.3116H34.4278V7.18755Z" fill="black"/>
<path fill-rule="evenodd" clip-rule="evenodd" d="M5.16506 0.858569C7.08814 0.274977 9.60944 0 12.0327 0C14.4559 0 16.9772 0.274977 18.9003 0.858569C19.8607 1.15003 20.6869 1.52286 21.2773 1.98841C21.8701 2.45587 22.2441 3.03358 22.2441 3.7252V7.05597C22.2441 7.74759 21.8701 8.3253 21.2773 8.79276C20.6869 9.25831 19.8607 9.63114 18.9003 9.9226C16.9772 10.5062 14.4559 10.7812 12.0327 10.7812C9.54356 10.7812 6.91478 10.4787 4.96301 9.86716C4.92939 9.87405 4.89096 9.88149 4.8536 9.88871L4.82445 9.89435C4.7448 9.90976 4.65743 9.92665 4.58307 9.94237C4.54203 9.95104 4.50714 9.9589 4.48093 9.96555C4.46428 9.96977 4.45586 9.97237 4.45313 9.97317L4.45085 9.97431L4.44008 9.97835C4.38213 10.0001 4.32394 10.0212 4.26596 10.0423C3.94844 10.1576 3.63752 10.2705 3.4101 10.4655L3.40941 10.466C3.0024 10.812 2.78513 11.1711 2.66615 11.5578C2.54499 11.9515 2.52245 12.3835 2.52245 12.8848V24.9311C5.69237 22.5014 8.87208 20.0717 12.0516 17.6422L12.053 17.6411L12.054 17.6404C15.3516 15.1206 18.649 12.601 21.9355 10.0814L21.9392 10.0785C22.3295 9.79226 22.8319 9.74178 23.2392 9.87755C23.6508 10.0147 23.9971 10.3579 23.9971 10.8688C23.9971 12.4511 24.0185 14.0363 24.0398 15.6233C24.0869 19.1219 24.1342 22.6288 23.953 26.131C23.8822 27.6152 22.8254 28.8083 21.5156 29.6723C20.1999 30.5401 18.582 31.1087 17.2852 31.3323L17.284 31.3325C12.2575 32.1703 8.09833 31.951 3.49869 30.2264C3.16484 30.1058 2.9604 29.8774 2.89576 29.5967C2.83362 29.3268 2.90873 29.0441 3.05501 28.8133C3.34738 28.352 3.98361 28.0138 4.6728 28.3311C8.73942 30.1477 13.896 30.3218 18.1395 28.8498C18.7468 28.6328 19.4743 28.3325 20.1007 27.9396C20.7327 27.5433 21.2299 27.0726 21.4242 26.5286L21.4262 26.5229L21.4286 26.5173C21.5871 26.1408 21.6305 25.715 21.6305 25.2601C21.6305 25.0333 21.6199 24.8042 21.6089 24.5727L21.6083 24.5598C21.5975 24.3344 21.5867 24.1062 21.5867 23.8851V13.2412C18.4164 15.6712 15.2363 18.1012 12.0564 20.5311C8.75846 23.0511 5.46047 25.5711 2.17369 28.091L2.16998 28.0938C1.77964 28.3801 1.27723 28.4306 0.869945 28.2948C0.458375 28.1576 0.112026 27.8145 0.112026 27.3035V15.9526C0.112026 15.5647 0.0870547 15.1345 0.0604061 14.6755C0.0567434 14.6124 0.053049 14.5488 0.0493834 14.4846C0.0192441 13.9572 -0.00863787 13.3991 0.00250624 12.8475C0.0246476 11.7515 0.200626 10.6379 0.860659 9.81234C1.29911 9.25452 1.84054 8.80216 2.45312 8.45449C2.04179 8.03747 1.82124 7.56501 1.82124 7.01214V3.7252C1.82124 3.03358 2.19521 2.45587 2.78805 1.98841C3.37847 1.52286 4.20464 1.15003 5.16506 0.858569ZM5.12704 9.45924C7.01909 10.0462 9.58449 10.3429 12.0327 10.3429C14.4303 10.3429 16.9051 10.0701 18.773 9.50322C19.708 9.21947 20.476 8.86643 21.0059 8.44862C21.5334 8.03271 21.8058 7.56956 21.8058 7.05597V3.7252C21.8058 3.21161 21.5334 2.74845 21.0059 2.33255C20.476 1.91474 19.708 1.5617 18.773 1.27794C16.9051 0.711105 14.4303 0.438259 12.0327 0.438259C9.63504 0.438259 7.16019 0.711105 5.29233 1.27794C4.35728 1.5617 3.58929 1.91474 3.05941 2.33255C2.53195 2.74845 2.25949 3.21161 2.25949 3.7252V7.01214C2.25949 7.50103 2.47998 7.92594 2.96951 8.33388L3.22691 8.54838L2.92723 8.69822C2.25236 9.03565 1.66505 9.49793 1.20468 10.0839L1.20349 10.0854C0.636889 10.7936 0.462353 11.7833 0.440676 12.8564C0.429907 13.3894 0.456807 13.9325 0.486928 14.4596C0.490561 14.5232 0.494245 14.5866 0.497915 14.6497C0.524477 15.1068 0.550285 15.551 0.550285 15.9526V27.3035C0.550285 27.5814 0.729846 27.7861 1.00853 27.879C1.29087 27.9731 1.64215 27.9364 1.90897 27.7417C5.19498 25.2224 8.49191 22.7032 11.7887 20.1841L11.7901 20.183C15.088 17.663 18.3857 15.1431 21.6725 12.6233L22.025 12.353V23.8851C22.025 24.0957 22.0354 24.3151 22.0463 24.5442L22.0466 24.552C22.0576 24.782 22.0688 25.0213 22.0688 25.2601C22.0688 25.7347 22.0249 26.2271 21.8348 26.6818C21.5896 27.3622 20.9926 27.8976 20.3336 28.3109C19.6675 28.7286 18.9054 29.0416 18.2858 29.2629L18.2839 29.2636C13.9381 30.7713 8.66509 30.5949 4.49287 28.7307L4.49044 28.7296C4.04066 28.522 3.62568 28.7315 3.42518 29.0479C3.32495 29.206 3.29323 29.3697 3.32285 29.4984C3.34989 29.6158 3.43532 29.7378 3.64849 29.8146L3.65122 29.8155C8.1666 31.5088 12.2462 31.7278 17.2112 30.9003C18.4562 30.6856 20.0154 30.1368 21.2743 29.3064C22.5392 28.4721 23.4545 27.3864 23.5153 26.1098L23.5153 26.1089C23.6957 22.621 23.6488 19.1379 23.6018 15.6465C23.5803 14.0561 23.5589 12.4639 23.5589 10.8688C23.5589 10.5909 23.3793 10.3862 23.1006 10.2933C22.8183 10.1992 22.467 10.236 22.2002 10.4307C18.9137 12.9503 15.6163 15.4699 12.3191 17.9893L12.3181 17.9901C9.02052 20.5098 5.7231 23.0295 2.43665 25.5491L2.08419 25.8193V12.8848C2.08419 12.3781 2.10547 11.8897 2.24727 11.4289C2.39121 10.9611 2.65593 10.5314 3.12522 10.1324C3.41942 9.8804 3.82004 9.73635 4.13366 9.62358C4.18503 9.60511 4.23406 9.58748 4.27991 9.57035C4.31287 9.5562 4.35062 9.54646 4.37323 9.54073C4.40779 9.53197 4.44925 9.52271 4.49244 9.51358C4.57075 9.49703 4.66194 9.4794 4.74084 9.46414C4.74912 9.46254 4.75726 9.46097 4.76523 9.45943C4.80337 9.45205 4.83756 9.44539 4.86572 9.43971L4.86485 9.4239C4.91264 9.41859 4.95113 9.41482 4.97569 9.41397C4.98148 9.41376 4.99403 9.4134 5.00835 9.4145C5.01402 9.41494 5.03163 9.41635 5.05292 9.42232C5.06309 9.42518 5.0854 9.4321 5.1103 9.44765C5.11492 9.45053 5.12065 9.45436 5.12704 9.45924ZM4.86664 9.4562C4.86611 9.45657 4.86558 9.45696 4.86505 9.45734C4.85551 9.46429 4.83219 9.48221 4.81171 9.51314C4.78931 9.54697 4.7608 9.61297 4.78369 9.69362C4.80458 9.76723 4.85538 9.80515 4.8782 9.8194C4.88119 9.82127 4.88415 9.82301 4.88704 9.82463L4.86664 9.4562ZM4.24979 3.7252C4.25934 3.71444 4.27206 3.70142 4.28876 3.68626C4.3566 3.62465 4.46833 3.54699 4.63056 3.45904C4.95328 3.28407 5.44666 3.08397 6.11041 2.8951C7.43607 2.51788 9.42065 2.19129 12.0327 2.19129C14.6447 2.19129 16.6293 2.51788 17.9549 2.8951C18.6187 3.08397 19.1121 3.28407 19.4348 3.45904C19.597 3.54699 19.7087 3.62465 19.7766 3.68626C19.7933 3.70142 19.806 3.71444 19.8155 3.7252C19.806 3.73596 19.7933 3.74898 19.7766 3.76414C19.7087 3.82575 19.597 3.90341 19.4348 3.99136C19.1121 4.16633 18.6187 4.36643 17.9549 4.5553C16.6293 4.93252 14.6447 5.25911 12.0327 5.25911C9.42065 5.25911 7.43607 4.93252 6.11041 4.5553C5.44666 4.36643 4.95328 4.16633 4.63056 3.99136C4.46833 3.90341 4.3566 3.82575 4.28876 3.76414C4.27206 3.74898 4.25934 3.73596 4.24979 3.7252ZM5.99046 2.47357C7.36009 2.08384 9.38558 1.75304 12.0327 1.75304C14.6798 1.75304 16.7052 2.08384 18.0749 2.47357C18.7588 2.66818 19.2843 2.87895 19.6437 3.07376C19.8225 3.17069 19.9675 3.26765 20.0712 3.36183C20.1231 3.40891 20.17 3.46014 20.2052 3.51542C20.2396 3.56933 20.2719 3.64124 20.2719 3.7252C20.2719 3.80916 20.2396 3.88107 20.2052 3.93498C20.17 3.99026 20.1231 4.04149 20.0712 4.08857C19.9675 4.18274 19.8225 4.27971 19.6437 4.37664C19.2843 4.57145 18.7588 4.78222 18.0749 4.97683C16.7052 5.36656 14.6798 5.69736 12.0327 5.69736C9.38558 5.69736 7.36009 5.36656 5.99046 4.97683C5.30656 4.78222 4.78099 4.57145 4.42167 4.37664C4.24288 4.27971 4.09781 4.18274 3.99412 4.08857C3.94228 4.04149 3.89537 3.99026 3.86009 3.93498C3.8257 3.88107 3.7934 3.80916 3.7934 3.7252C3.7934 3.64124 3.8257 3.56933 3.86009 3.51542C3.89537 3.46014 3.94228 3.40891 3.99412 3.36183C4.09781 3.26765 4.24288 3.17069 4.42167 3.07376C4.78099 2.87895 5.30656 2.66818 5.99046 2.47357ZM26.0131 3.94433H46.1292V7.40657H37.9338V28.5306H34.2086V7.40657H26.0131V3.94433ZM26.4514 4.38259V6.96831H34.6468V28.0924H37.4955V6.96831H45.6909V4.38259H26.4514ZM20.2719 5.62001V7.05597C20.2719 7.13993 20.2396 7.21184 20.2052 7.26575C20.17 7.32103 20.1231 7.37226 20.0712 7.41934C19.9675 7.51351 19.8225 7.61047 19.6437 7.70741C19.2843 7.90222 18.7588 8.11299 18.0749 8.30759C16.7052 8.69733 14.6798 9.02813 12.0327 9.02813C9.38558 9.02813 7.36009 8.69733 5.99046 8.30759C5.30656 8.11299 4.78099 7.90222 4.42167 7.70741C4.24288 7.61047 4.09781 7.51351 3.99412 7.41934C3.94228 7.37226 3.89537 7.32103 3.86009 7.26575C3.8257 7.21184 3.7934 7.13993 3.7934 7.05597V5.96032H4.01253L4.10321 5.76083C5.98958 6.61827 9.06447 7.05597 12.0327 7.05597C15.0009 7.05597 18.0758 6.61827 19.9621 5.76083L20.2719 5.62001ZM4.23166 6.293V7.0332C4.24028 7.0458 4.25762 7.06662 4.28876 7.0949C4.3566 7.15652 4.46833 7.23417 4.63056 7.32213C4.95328 7.4971 5.44666 7.6972 6.11041 7.88607C7.43607 8.26329 9.42065 8.58987 12.0327 8.58987C14.6447 8.58987 16.6293 8.26329 17.9549 7.88607C18.6187 7.6972 19.1121 7.4971 19.4348 7.32213C19.597 7.23417 19.7087 7.15652 19.7766 7.0949C19.8077 7.06662 19.825 7.0458 19.8337 7.0332V6.293C17.8531 7.09893 14.8725 7.49423 12.0327 7.49423C9.19282 7.49423 6.21222 7.09893 4.23166 6.293Z" fill="black"/>
<path d="M50.7751 26.2954C50.1615 27.128 49.4165 27.7854 48.4085 28.1799C47.4443 28.5743 46.4363 28.7934 45.3845 28.7934C44.7271 28.7934 44.0697 28.7058 43.4123 28.5305C42.7549 28.3552 42.1852 28.0484 41.6155 27.6101C41.0896 27.1719 40.6513 26.646 40.3007 25.9886C39.9501 25.3312 39.8186 24.4985 39.8186 23.5343C39.8186 21.7375 40.4322 20.2912 41.6155 19.1956C42.7988 18.0999 44.5518 17.574 46.8307 17.574C47.1814 17.574 47.5758 17.574 48.014 17.6178C48.4085 17.6617 48.8029 17.6617 49.1973 17.7055C49.5479 17.7493 49.8986 17.7493 50.1615 17.7931C50.4245 17.837 50.6436 17.837 50.7312 17.8808V17.2672C50.7312 15.9963 50.3806 15.1198 49.6356 14.55C48.9344 14.0241 47.9264 13.7173 46.6993 13.7173C45.4721 13.7173 44.508 13.8926 43.8068 14.2432C43.1055 14.5938 42.492 14.9445 42.0099 15.2951L40.5636 13.1038C40.8266 12.8846 41.1772 12.6217 41.5716 12.3587C41.9661 12.1396 42.4043 11.8766 42.9302 11.7013C43.4562 11.4822 44.0697 11.3069 44.7271 11.1754C45.3845 11.044 46.1734 10.9563 47.006 10.9563C49.0659 10.9563 50.6874 11.4822 51.8707 12.534C53.054 13.5859 53.6238 15.0759 53.6238 17.0043V26.8213C53.6238 27.391 53.6238 27.9169 53.6676 28.3113H50.7751V26.2954ZM50.7751 20.335C50.6874 20.2912 50.5121 20.2912 50.2492 20.2474C49.9862 20.2036 49.6794 20.1597 49.3288 20.1597C48.9782 20.1159 48.6276 20.1159 48.2332 20.0721C47.8387 20.0283 47.4443 20.0283 47.0937 20.0283C46.2172 20.0283 45.516 20.1159 44.9901 20.335C44.4641 20.5542 44.0259 20.8171 43.7191 21.1677C43.4123 21.4745 43.1932 21.8689 43.1055 22.2634C42.9741 22.6578 42.9302 23.0522 42.9302 23.4029C42.9302 24.3232 43.237 25.0244 43.8068 25.5065C44.4203 25.9886 45.2092 26.2077 46.261 26.2077C46.8746 26.2077 47.4005 26.1201 47.9702 25.9009C48.4961 25.6818 48.9782 25.375 49.3726 25.0244C49.7671 24.6738 50.1177 24.2355 50.3806 23.7535C50.6436 23.2714 50.7751 22.7893 50.7751 22.2634V20.335ZM62.2575 19.6338L56.5163 11.4822H60.3729L64.2296 17.0481L67.9986 11.4822H71.4171L65.8512 19.3709L72.2059 28.3113H68.3493L63.9228 21.9566L59.5841 28.3113H56.078L62.2575 19.6338Z" fill="black"/>
<path fill-rule="evenodd" clip-rule="evenodd" d="M47.0062 11.1756C46.1882 11.1756 45.4137 11.2617 44.7702 11.3904C44.123 11.5199 43.524 11.6915 43.0147 11.9037L43.0073 11.9068L42.9997 11.9094C42.5597 12.056 42.1848 12.2664 41.8279 12.4667C41.7803 12.4934 41.733 12.5199 41.686 12.5461C41.3725 12.7554 41.0881 12.964 40.8559 13.1487L42.0685 14.986C42.531 14.6702 43.0888 14.3574 43.7089 14.0474C44.4529 13.6754 45.4556 13.4983 46.6994 13.4983C47.9607 13.4983 49.0187 13.8135 49.7672 14.3749L49.7689 14.3761C50.5863 15.0012 50.9505 15.9549 50.9505 17.2674V18.2355L50.6356 18.078C50.6356 18.078 50.6356 18.078 50.6356 18.078C50.6352 18.078 50.6261 18.0748 50.6025 18.0704C50.5739 18.0651 50.5369 18.0603 50.4881 18.0549C50.4706 18.0529 50.4519 18.051 50.4321 18.0489C50.3458 18.0397 50.2388 18.0283 50.1256 18.0094C50.0067 17.9896 49.8642 17.9792 49.6979 17.9681C49.6873 17.9674 49.6766 17.9667 49.6659 17.966C49.5121 17.9558 49.3423 17.9445 49.1718 17.9232C48.9821 17.9022 48.7914 17.8916 48.5937 17.8806L48.5908 17.8804C48.3959 17.8696 48.194 17.8584 47.9912 17.8359C47.5657 17.7934 47.1818 17.7933 46.8309 17.7933C44.5815 17.7933 42.8918 18.3127 41.7645 19.3565C40.6299 20.407 40.0379 21.7931 40.0379 23.5345C40.0379 24.4831 40.168 25.274 40.4942 25.8856C40.8305 26.5162 41.2495 27.0193 41.7526 27.4392C42.3032 27.8622 42.8463 28.1529 43.4689 28.3189C44.1085 28.4894 44.747 28.5744 45.3846 28.5744C46.4052 28.5744 47.3851 28.3619 48.3256 27.9772L48.3288 27.9759C49.29 27.5998 50.004 26.9728 50.5988 26.1655L50.9943 25.6287V28.0924H53.4289C53.4048 27.7261 53.4048 27.2878 53.4048 26.8328V17.0044C53.4048 15.1216 52.8504 13.6981 51.7253 12.6979C50.5929 11.6914 49.0289 11.1756 47.0062 11.1756ZM44.6843 10.9607C45.3555 10.8264 46.1588 10.7373 47.0062 10.7373C49.1031 10.7373 50.7822 11.2733 52.0164 12.3704C53.2579 13.4739 53.843 15.0305 53.843 17.0044V26.8214C53.843 27.3959 53.8433 27.9077 53.8855 28.2873L53.9125 28.5306H50.5561V26.9166C49.9998 27.546 49.3341 28.0529 48.49 28.3835C47.5026 28.7872 46.4671 29.0127 45.3846 29.0127C44.7075 29.0127 44.0312 28.9224 43.356 28.7423C42.6651 28.5581 42.0697 28.236 41.482 27.784L41.4786 27.7813L41.4753 27.7786C40.928 27.3225 40.4716 26.7746 40.1075 26.0918C39.7324 25.3886 39.5996 24.5142 39.5996 23.5345C39.5996 21.6821 40.2347 20.1757 41.4667 19.0349C42.706 17.8874 44.5223 17.355 46.8309 17.355H46.834C47.1833 17.355 47.5868 17.355 48.036 17.3999L48.0384 17.4002C48.2286 17.4213 48.4198 17.432 48.618 17.443L48.6209 17.4432C48.8162 17.454 49.0185 17.4653 49.2217 17.4878L49.2247 17.4882C49.3825 17.5079 49.5409 17.5184 49.6976 17.5288C49.7074 17.5295 49.7172 17.5301 49.727 17.5308C49.8893 17.5416 50.0537 17.5531 50.1977 17.5771C50.2968 17.5936 50.388 17.6034 50.4736 17.6125C50.4866 17.6139 50.4995 17.6153 50.5123 17.6167V17.2674C50.5123 16.0384 50.1755 15.2392 49.5034 14.7248C48.8495 14.2348 47.8918 13.9366 46.6994 13.9366C45.489 13.9366 44.5633 14.1102 43.9049 14.4394C43.2088 14.7874 42.6072 15.1318 42.1389 15.4724L41.9535 15.6073L40.2729 13.061L40.4235 12.9356C40.6931 12.7109 41.0501 12.4433 41.4502 12.1765L41.4576 12.1716L41.4654 12.1673C41.5128 12.1409 41.5614 12.1137 41.611 12.0857C41.9641 11.8874 42.3743 11.6568 42.8535 11.4961C43.3943 11.2715 44.0197 11.0936 44.6843 10.9607ZM56.094 11.2632H60.4878L64.2277 16.6605L67.8825 11.2632H71.84L66.1198 19.3705L72.6307 28.5306H68.235L63.9248 22.3427L59.6999 28.5306H55.6531L61.9891 19.6333L56.094 11.2632ZM56.9388 11.7015L62.5261 19.6347L56.5032 28.0924H59.4685L63.9212 21.5708L68.4638 28.0924H71.7815L65.5828 19.3715L70.9944 11.7015H68.115L64.2318 17.436L60.2583 11.7015H56.9388ZM44.9059 20.1329C45.4721 19.897 46.208 19.8093 47.0938 19.8093H47.0986C47.4465 19.8093 47.851 19.8093 48.2575 19.8544C48.443 19.875 48.619 19.8857 48.7956 19.8964L48.8108 19.8973C48.9864 19.908 49.1639 19.919 49.3426 19.9408C49.7056 19.9419 50.0218 19.9874 50.2853 20.0314C50.3801 20.0472 50.4607 20.0567 50.5347 20.0654C50.5588 20.0683 50.5822 20.071 50.6052 20.0739C50.6847 20.0839 50.7898 20.0975 50.8732 20.1392L50.7752 20.3352H50.9943V22.2635C50.9943 22.8293 50.852 23.3472 50.5731 23.8585C50.2981 24.3627 49.9317 24.8209 49.5184 25.1883C49.1058 25.5551 48.603 25.8749 48.0546 26.1033L48.049 26.1057C47.4518 26.3354 46.8989 26.427 46.2611 26.427C45.1791 26.427 44.3363 26.2013 43.6715 25.6789L43.6684 25.6765L43.6653 25.6739C43.0381 25.1432 42.7112 24.3761 42.7112 23.403C42.7112 23.0379 42.7564 22.623 42.8943 22.2048C42.9925 21.7736 43.2301 21.3491 43.5592 21.0181C43.897 20.6344 44.3681 20.357 44.9059 20.1329ZM50.5561 20.5094C50.5543 20.5092 50.5526 20.509 50.5508 20.5088C50.5323 20.5065 50.5118 20.5041 50.4897 20.5014C50.4143 20.4926 50.3195 20.4814 50.2133 20.4637C49.9542 20.4205 49.6614 20.379 49.329 20.379H49.3153L49.3018 20.3773C49.1344 20.3564 48.9659 20.3458 48.7843 20.3348L48.7658 20.3336C48.5914 20.3231 48.4057 20.3119 48.2091 20.29C47.8286 20.2477 47.4461 20.2475 47.0938 20.2475C46.2266 20.2475 45.5601 20.3351 45.0745 20.5374C44.5631 20.7505 44.1595 20.9975 43.8842 21.3122L43.8793 21.3177L43.8742 21.3228C43.5952 21.6018 43.3977 21.9595 43.3196 22.311L43.3171 22.3221L43.3136 22.3328C43.1912 22.6999 43.1495 23.07 43.1495 23.403C43.1495 24.2689 43.4351 24.9034 43.9454 25.3368C44.5074 25.777 45.2415 25.9887 46.2611 25.9887C46.8495 25.9887 47.3477 25.9054 47.8888 25.6976C48.3912 25.4879 48.8516 25.1946 49.2272 24.8608C49.6027 24.527 49.9375 24.1086 50.1884 23.6487C50.4354 23.1958 50.5561 22.7495 50.5561 22.2635V20.5094Z" fill="black"/>
<path d="M75.3172 23.447C75.9745 24.2358 76.6319 24.8056 77.3331 25.2C77.9905 25.5506 78.8232 25.7259 79.7436 25.7259C80.3133 25.7259 80.7954 25.6383 81.2775 25.463C81.7596 25.2876 82.154 24.9809 82.5484 24.6303C82.899 24.2358 83.2058 23.7537 83.4249 23.1402C83.6441 22.5266 83.7317 21.8254 83.7317 20.9489V4.16357H87.0187V21.2118C87.0187 22.6143 86.8434 23.7976 86.4489 24.7617C86.0545 25.7259 85.5286 26.5148 84.8712 27.1722C84.2138 27.7857 83.4688 28.224 82.5923 28.5308C81.7157 28.7937 80.7954 28.969 79.8312 28.969C78.122 28.969 76.7634 28.6622 75.6678 28.0487C74.5721 27.4351 73.6956 26.6463 72.9944 25.6383L75.3172 23.447ZM99.9035 26.2956C99.2899 27.1283 98.5449 27.7857 97.5369 28.1802C96.5727 28.5746 95.5647 28.7937 94.5567 28.7937C93.8993 28.7937 93.2419 28.7061 92.5846 28.5308C91.9272 28.3555 91.3574 28.0487 90.7877 27.6104C90.2618 27.1722 89.8235 26.6463 89.4729 25.9889C89.1223 25.3315 88.9908 24.4988 88.9908 23.5346C88.9908 21.7378 89.6044 20.2915 90.7877 19.1959C91.971 18.1002 93.724 17.5743 96.003 17.5743C96.3536 17.5743 96.748 17.5743 97.1863 17.6181C97.5807 17.6619 97.9751 17.6619 98.3696 17.7058C98.7202 17.7496 99.0708 17.7496 99.3337 17.7934C99.5967 17.8372 99.8158 17.8372 99.9035 17.8811V17.2675C99.9035 15.9966 99.5529 15.12 98.8078 14.5503C98.1066 14.0244 97.0986 13.7176 95.8715 13.7176C94.6444 13.7176 93.6802 13.8929 92.979 14.2435C92.2778 14.5941 91.6642 14.9447 91.1821 15.2953L89.7359 13.1041C89.9988 12.8849 90.3494 12.622 90.7439 12.359C91.1383 12.1399 91.5766 11.8769 92.1025 11.7016C92.6284 11.4825 93.2419 11.3072 93.8993 11.1757C94.5567 11.0442 95.3456 10.9566 96.1783 10.9566C98.2381 10.9566 99.8597 11.4825 101.043 12.5343C102.226 13.5861 102.796 15.0762 102.796 17.0046V26.8216C102.796 27.3913 102.796 27.9172 102.84 28.3116H99.9473L99.9035 26.2956ZM99.9035 20.3353C99.8158 20.2915 99.6405 20.2915 99.3776 20.2477C99.1146 20.2038 98.8078 20.16 98.4572 20.16C98.1066 20.1162 97.756 20.1162 97.3616 20.0724C96.9671 20.0285 96.5727 20.0285 96.2221 20.0285C95.3456 20.0285 94.6444 20.1162 94.1185 20.3353C93.5925 20.5545 93.1543 20.8174 92.8475 21.168C92.5407 21.4748 92.3216 21.8692 92.2339 22.2637C92.1025 22.6581 92.0586 23.0525 92.0586 23.4031C92.0586 24.3235 92.3654 25.0247 92.9352 25.5068C93.5487 25.9889 94.3376 26.208 95.3894 26.208C96.003 26.208 96.5289 26.1203 97.0986 25.9012C97.6245 25.6821 98.1066 25.3753 98.501 25.0247C98.8955 24.6741 99.2461 24.2358 99.509 23.7537C99.772 23.2717 99.9035 22.7896 99.9035 22.2637V20.3353ZM105.382 28.3116V13.1041C105.382 12.5781 105.382 12.0084 105.338 11.4825H108.274L108.362 14.1997C108.537 13.8929 108.8 13.5861 109.063 13.2355C109.37 12.8849 109.72 12.5781 110.159 12.2714C110.597 11.9646 111.079 11.7455 111.649 11.5263C112.219 11.3072 112.832 11.2195 113.577 11.2195C113.928 11.2195 114.235 11.2634 114.541 11.3072C114.848 11.351 115.111 11.4387 115.33 11.5263L114.629 14.5503C114.235 14.375 113.709 14.2874 113.051 14.2874C112.394 14.2874 111.78 14.4188 111.211 14.6818C110.641 14.9447 110.159 15.2953 109.764 15.7774C109.37 16.2595 109.019 16.7854 108.8 17.4428C108.581 18.0564 108.45 18.7138 108.45 19.415V28.2678H105.382V28.3116Z" fill="black"/>
<path fill-rule="evenodd" clip-rule="evenodd" d="M83.5127 3.94434H87.2379V21.2117C87.2379 22.6302 87.0609 23.8446 86.6518 24.8446C86.247 25.8342 85.7053 26.648 85.0262 27.327L85.0236 27.3297L85.0208 27.3322C84.3396 27.9681 83.5677 28.4214 82.6647 28.7375L82.6601 28.7391L82.6553 28.7405C81.7642 29.0079 80.8222 29.188 79.8313 29.188C78.0964 29.188 76.6981 28.8767 75.5608 28.2398C74.437 27.6105 73.5353 26.7993 72.8146 25.7633L72.7068 25.6083L75.1669 23.2875L75.3172 23.4469L75.4856 23.3066C76.1295 24.0792 76.7665 24.6292 77.4385 25.0077C78.0559 25.3364 78.8501 25.5067 79.7437 25.5067C80.2885 25.5067 80.7452 25.4233 81.2027 25.2569C81.6405 25.0977 82.007 24.8176 82.3932 24.475C82.7227 24.1021 83.0113 23.6469 83.2187 23.0664C83.4261 22.4855 83.5127 21.812 83.5127 20.9488V3.94434ZM75.2999 23.7645L73.2838 25.6665C73.9466 26.5735 74.7638 27.2911 75.7749 27.8574C76.8289 28.4476 78.1478 28.7498 79.8313 28.7498C80.7671 28.7498 81.6641 28.58 82.5246 28.3222C83.3714 28.0252 84.0873 27.6033 84.719 27.0144C85.3535 26.3792 85.8627 25.616 86.2462 24.6787C86.626 23.7503 86.7996 22.5981 86.7996 21.2117V4.38259H83.951V20.9488C83.951 21.8386 83.8622 22.5676 83.6314 23.2138C83.4023 23.8553 83.0805 24.3616 82.7123 24.7757L82.7037 24.7854L82.6941 24.7939C82.2951 25.1486 81.8751 25.4787 81.3525 25.6688C80.8458 25.853 80.3383 25.9449 79.7437 25.9449C78.7976 25.9449 77.9272 25.765 77.2301 25.3932L77.2258 25.3909C76.5509 25.0113 75.921 24.4787 75.2999 23.7645ZM96.1784 11.1756C95.3604 11.1756 94.5859 11.2618 93.9424 11.3905C93.2952 11.5199 92.6961 11.6916 92.1868 11.9038L92.1795 11.9069L92.1719 11.9094C91.7319 12.0561 91.357 12.2664 91.0001 12.4667C90.9525 12.4934 90.9053 12.5199 90.8582 12.5461C90.5447 12.7554 90.2603 12.964 90.0281 13.1488L91.2407 14.9861C91.7032 14.6703 92.261 14.3575 92.8811 14.0474C93.6251 13.6754 94.6278 13.4984 95.8716 13.4984C97.1329 13.4984 98.1909 13.8135 98.9394 14.3749L98.941 14.3761C99.7585 15.0013 100.123 15.955 100.123 17.2674V18.2355L99.8078 18.0781C99.8077 18.0782 99.7988 18.0749 99.7746 18.0704C99.7461 18.0651 99.7091 18.0604 99.6602 18.0549C99.6428 18.053 99.6241 18.051 99.6043 18.0489C99.518 18.0397 99.411 18.0283 99.2978 18.0095C99.1788 17.9896 99.0364 17.9792 98.87 17.9681L98.838 17.966C98.6843 17.9558 98.5145 17.9445 98.3441 17.9233C98.1543 17.9023 97.9636 17.8916 97.7659 17.8806L97.7631 17.8805C97.5681 17.8696 97.3662 17.8584 97.1634 17.8359C97.163 17.8359 97.1626 17.8358 97.1622 17.8358L97.1864 17.618L97.1646 17.8361C97.1642 17.836 97.1638 17.836 97.1634 17.8359C96.7379 17.7935 96.354 17.7933 96.0031 17.7933C93.7537 17.7933 92.0639 18.3128 90.9367 19.3565C89.8021 20.4071 89.2101 21.7931 89.2101 23.5345C89.2101 24.4831 89.3402 25.2741 89.6664 25.8856C90.0027 26.5163 90.4217 27.0193 90.9248 27.4392C90.9236 27.4384 90.9225 27.4375 90.9214 27.4366L90.7878 27.6103L90.9281 27.442C90.927 27.4411 90.9259 27.4401 90.9248 27.4392C91.4754 27.8623 92.0185 28.1529 92.6411 28.3189C93.2807 28.4895 93.9191 28.5745 94.5568 28.5745C95.533 28.5745 96.5129 28.3622 97.454 27.9772L97.4571 27.976C98.4184 27.5998 99.1323 26.9728 99.7272 26.1655L100.109 25.6478L100.162 28.0924H99.9474V28.3115L100.166 28.3068L100.162 28.0924H102.601C102.607 28.1776 102.614 28.259 102.622 28.3357L102.84 28.3115V28.0924H102.601C102.577 27.7262 102.577 27.2879 102.577 26.833V17.0044C102.577 15.1216 102.023 13.6981 100.897 12.698C99.7651 11.6915 98.2011 11.1756 96.1784 11.1756ZM93.8565 10.9607C94.5277 10.8265 95.331 10.7373 96.1784 10.7373C98.2753 10.7373 99.9544 11.2733 101.189 12.3704C102.43 13.474 103.015 15.0306 103.015 17.0044V26.8214C103.015 27.3959 103.016 27.9077 103.058 28.2873L103.085 28.5307H99.733L99.6976 26.9018C99.1386 27.538 98.4692 28.0503 97.6183 28.3835C96.6316 28.787 95.5961 29.0127 94.5568 29.0127C93.8797 29.0127 93.2033 28.9224 92.5282 28.7424C91.8373 28.5581 91.2419 28.2361 90.6542 27.784L90.6508 27.7814L90.6475 27.7787C90.1002 27.3226 89.6438 26.7746 89.2797 26.0919C88.9046 25.3886 88.7718 24.5143 88.7718 23.5345C88.7718 21.6822 89.4069 20.1757 90.6389 19.035C91.8782 17.8874 93.6945 17.3551 96.0031 17.3551H96.0062C96.3555 17.3551 96.759 17.3551 97.2082 17.4L97.2106 17.4002C97.4008 17.4213 97.592 17.432 97.7902 17.443L97.793 17.4432C97.9883 17.4541 98.1906 17.4653 98.3939 17.4879L98.3968 17.4882C98.5547 17.5079 98.7131 17.5185 98.8697 17.5289L98.8992 17.5308C99.0615 17.5417 99.2259 17.5532 99.3699 17.5772C99.469 17.5937 99.5602 17.6034 99.6458 17.6126C99.6588 17.6139 99.6717 17.6153 99.6844 17.6167V17.2674C99.6844 16.0384 99.3477 15.2392 98.6756 14.7249C98.0217 14.2348 97.064 13.9366 95.8716 13.9366C94.6612 13.9366 93.7355 14.1102 93.0771 14.4394C92.381 14.7874 91.7794 15.1319 91.3111 15.4725L91.1257 15.6073L89.4451 13.0611L89.5957 12.9356C89.8653 12.7109 90.2223 12.4433 90.6224 12.1766L90.6298 12.1717L90.6375 12.1674C90.685 12.141 90.7336 12.1137 90.7832 12.0858C91.1363 11.8874 91.5465 11.6569 92.0256 11.4962C92.5665 11.2716 93.1919 11.0936 93.8565 10.9607ZM113.577 11.4386C112.85 11.4386 112.265 11.5242 111.728 11.7307C111.164 11.9476 110.701 12.1592 110.284 12.4508C109.861 12.7474 109.525 13.041 109.233 13.3736C109.155 13.4778 109.08 13.5751 109.008 13.6678C108.828 13.8994 108.67 14.1017 108.552 14.3083L108.168 14.9808L108.062 11.7015H105.573C105.601 12.167 105.601 12.653 105.601 13.0993V28.0486H108.23V19.4149C108.23 18.6866 108.367 18.005 108.593 17.3712C108.824 16.6803 109.191 16.1315 109.595 15.6386C110.013 15.1274 110.523 14.7576 111.119 14.4827C111.719 14.2058 112.364 14.0681 113.051 14.0681C113.604 14.0681 114.08 14.1282 114.472 14.2561L115.073 11.6638C114.906 11.6053 114.718 11.5537 114.51 11.524C114.202 11.48 113.91 11.4386 113.577 11.4386ZM105.382 28.3115H105.163V13.1039C105.163 12.5762 105.163 12.0158 105.12 11.5006L105.1 11.2633H108.486L108.56 13.5301C108.6 13.478 108.64 13.4257 108.681 13.3733C108.751 13.2838 108.82 13.194 108.888 13.1039L108.893 13.0973L108.898 13.0911C109.219 12.725 109.583 12.4068 110.033 12.0917C110.493 11.7698 110.995 11.5431 111.57 11.3217C112.173 11.09 112.815 11.0003 113.577 11.0003C113.943 11.0003 114.263 11.046 114.567 11.0894L114.572 11.0902C114.902 11.1373 115.183 11.2313 115.412 11.3228L115.586 11.3926L114.783 14.8582L114.54 14.7504C114.184 14.5924 113.693 14.5064 113.051 14.5064C112.424 14.5064 111.842 14.6316 111.302 14.8806C110.759 15.1317 110.305 15.4631 109.934 15.9161C109.549 16.3868 109.216 16.8892 109.008 17.512L109.007 17.5164C108.795 18.1091 108.669 18.7416 108.669 19.4149V28.4868H105.382V28.3115ZM94.0343 20.1329C94.6005 19.897 95.3364 19.8093 96.2222 19.8093H96.227C96.5749 19.8093 96.9794 19.8093 97.3859 19.8545C97.5714 19.8751 97.7473 19.8857 97.924 19.8964L97.9392 19.8974C98.1147 19.908 98.2923 19.919 98.471 19.9408C98.834 19.9419 99.1501 19.9875 99.4137 20.0314C99.5085 20.0472 99.5891 20.0567 99.6631 20.0655C99.6872 20.0683 99.7106 20.0711 99.7335 20.074C99.8131 20.0839 99.9181 20.0975 100.002 20.1392L99.9036 20.3352H100.123V22.2636C100.123 22.8294 99.9804 23.3472 99.7015 23.8586C99.4265 24.3628 99.0601 24.821 98.6467 25.1884C98.2341 25.5551 97.7313 25.8749 97.183 26.1034L97.1774 26.1057C96.5802 26.3354 96.0272 26.427 95.3895 26.427C94.3075 26.427 93.4646 26.2013 92.7999 25.679L92.7967 25.6765L92.7937 25.674C92.1665 25.1432 91.8396 24.3761 91.8396 23.403C91.8396 23.0379 91.8848 22.6231 92.0226 22.2049C92.1209 21.7736 92.3584 21.3491 92.6875 21.0181C93.0254 20.6345 93.4964 20.357 94.0343 20.1329ZM99.6844 20.5095C99.6827 20.5093 99.681 20.509 99.6792 20.5088C99.6606 20.5065 99.6402 20.5041 99.6181 20.5015C99.5427 20.4926 99.4478 20.4814 99.3416 20.4637C99.0826 20.4205 98.7898 20.379 98.4573 20.379H98.4437L98.4301 20.3773C98.2628 20.3564 98.0942 20.3458 97.9127 20.3348L97.8941 20.3337C97.7197 20.3231 97.5341 20.3119 97.3375 20.29C96.957 20.2478 96.5744 20.2476 96.2222 20.2476C95.355 20.2476 94.6885 20.3351 94.2028 20.5375C93.6914 20.7506 93.2879 20.9975 93.0125 21.3122L93.0077 21.3177L93.0026 21.3229C92.7236 21.6018 92.5261 21.9596 92.448 22.3111L92.4455 22.3221L92.4419 22.3328C92.3196 22.6999 92.2779 23.07 92.2779 23.403C92.2779 24.2689 92.5634 24.9035 93.0738 25.3368C93.6357 25.777 94.3698 25.9888 95.3895 25.9888C95.9778 25.9888 96.4761 25.9054 97.0172 25.6977C97.5196 25.488 97.98 25.1947 98.3556 24.8608C98.7311 24.527 99.0659 24.1087 99.3168 23.6487C99.5638 23.1959 99.6844 22.7496 99.6844 22.2636V20.5095Z" fill="black"/>
<path d="M120.064 5.52197C120.37 5.52197 120.721 5.5658 121.028 5.69728C121.334 5.78493 121.597 5.96023 121.86 6.13553C122.211 6.39849 122.474 6.7491 122.693 7.14353C122.868 7.53796 123 7.97622 123 8.41448C123 8.80891 122.912 9.15952 122.781 9.55395C122.649 9.90456 122.43 10.2113 122.167 10.4743C121.86 10.7373 121.554 10.9564 121.203 11.1317C120.852 11.2632 120.502 11.3508 120.107 11.3508C119.713 11.3508 119.362 11.2632 119.012 11.1317C118.661 11.0002 118.354 10.7811 118.048 10.4743C117.785 10.2113 117.565 9.90456 117.434 9.55395C117.302 9.20335 117.215 8.85274 117.215 8.45831C117.215 8.15153 117.259 7.84474 117.39 7.53796C117.478 7.23118 117.653 6.9244 117.872 6.66145C118.135 6.31084 118.486 6.04788 118.88 5.82875C119.187 5.60962 119.625 5.52197 120.064 5.52197ZM122.605 8.45831C122.605 8.1077 122.562 7.75709 122.43 7.45031C122.299 7.14353 122.123 6.88058 121.904 6.61762C121.685 6.39849 121.378 6.22319 121.072 6.09171C120.765 5.96023 120.414 5.91641 120.107 5.91641C119.757 5.91641 119.45 5.96023 119.143 6.09171C118.836 6.22319 118.573 6.39849 118.354 6.61762C118.091 6.88058 117.916 7.14353 117.785 7.45031C117.653 7.75709 117.565 8.1077 117.565 8.41448C117.565 8.76509 117.609 9.07187 117.741 9.37865C117.872 9.68543 118.048 9.94839 118.267 10.1675C118.53 10.3866 118.793 10.6058 119.099 10.7373C119.406 10.8687 119.713 10.9126 120.064 10.9126C120.414 10.9126 120.721 10.8687 121.072 10.7373C121.378 10.6058 121.685 10.4305 121.904 10.1675C122.123 9.94839 122.299 9.68543 122.43 9.37865C122.562 9.11569 122.605 8.80891 122.605 8.45831ZM120.765 8.54596L121.51 10.036H120.809L120.151 8.63361H119.538V10.036H118.924V6.7491H120.151C120.589 6.7491 120.94 6.83675 121.203 6.96823C121.422 7.0997 121.554 7.36266 121.554 7.62561C121.554 7.84474 121.466 8.06387 121.334 8.19535C121.203 8.37066 121.028 8.50213 120.765 8.54596ZM120.064 8.23918C120.37 8.23918 120.589 8.19535 120.721 8.1077C120.852 8.02005 120.896 7.88857 120.896 7.71327C120.896 7.53796 120.809 7.36266 120.677 7.27501C120.546 7.18736 120.326 7.14353 120.02 7.14353H119.494V8.23918H120.064Z" fill="black"/>
</svg>
