<svg width="43" height="52" viewBox="0 0 43 52" fill="none" xmlns="../../../../../../../../../../www.w3.org/2000/svg.html">
<path d="M21.4983 0C13.2066 0 5.97394 1.63132 0 4.84835V30.5675C0 35.9793 2.00096 40.5047 5.78555 43.6573C9.2995 46.5865 20.167 51.4137 21.4987 52C22.7616 51.4414 33.7579 46.5396 37.2161 43.6573C40.9985 40.5064 43 35.9796 43 30.5675V4.84835C37.0252 1.6309 29.7933 0 21.4983 0ZM33.7759 4.97993C36.2486 5.01278 38.6765 5.168 41.0235 5.38965V30.5673C41.0235 35.4057 39.2958 39.314 35.9624 42.1042C32.9844 44.5964 24.0044 48.685 21.4987 49.8074C18.9594 48.6698 9.95698 44.5296 7.03253 42.1053C3.71879 39.3628 1.97453 35.3617 1.97453 30.5683V15.8566C11.4972 6.98192 23.0608 4.83809 33.7751 4.9805L33.7759 4.97993ZM22.0588 16.7036C20.0187 16.7036 18.3726 17.1671 17.0174 18.056V42.8277H20.7592V34.8248C21.1326 34.9367 21.6746 35.0413 22.4424 35.0413C26.593 35.0413 28.9787 31.239 28.9787 25.6874C28.9787 20.1466 26.5221 16.7036 22.0588 16.7036ZM34.8442 16.7036C32.3834 16.7761 29.8099 18.5876 29.8256 21.6586C29.8319 23.6806 30.3835 25.1928 33.4674 27.0316C35.1131 28.0133 35.7762 28.6602 35.8046 29.8531C35.8361 31.1791 34.9345 31.9786 33.5625 31.9733C32.3688 31.9637 30.9418 31.2905 29.9862 30.4259V33.9252C31.1579 34.6351 32.6198 35.1044 34.0968 35.1044C37.7932 35.1044 39.4438 32.451 39.5152 30.0195C39.5854 27.8034 38.9828 26.1265 35.857 24.2601C34.4619 23.4286 33.3601 22.8822 33.3969 21.4986C33.4336 20.148 34.537 19.6735 35.5964 19.6832C36.9034 19.6949 38.1677 20.4305 38.9481 21.2438V17.9394C38.2904 17.4245 36.898 16.6397 34.8442 16.7036ZM3.88528 17.0884V29.0372C3.88528 33.0654 5.76037 35.1047 9.46104 35.1047C11.7509 35.1047 13.6688 34.5662 15.0975 33.5791V17.0885H11.3639V31.4156C10.9569 31.6992 10.3532 31.8803 9.59379 31.8803C7.87982 31.8803 7.62371 30.2831 7.62371 29.2055V17.0886L3.88528 17.0884ZM22.084 19.7649C24.2542 19.7649 25.1538 21.5257 25.1538 25.7842C25.1538 29.9392 24.125 31.9467 21.9726 31.9467C21.4659 31.9467 21.0256 31.8192 20.7581 31.7169V20.0401C21.0612 19.8866 21.5763 19.7649 22.084 19.7649Z" fill="black"/>
</svg>
