<svg width="52" height="52" viewBox="0 0 52 52" fill="none" xmlns="../../../../../../../../../../www.w3.org/2000/svg.html">
<path fill-rule="evenodd" clip-rule="evenodd" d="M49.13 0H2.87C1.28497 0 0 1.28497 0 2.87V49.13C0 50.7149 1.28461 52 2.87026 52H27.7773V31.8906H21.0234V24.0195H27.7773V18.2319C27.7773 11.5155 31.8791 7.85825 37.8704 7.85825C40.7402 7.85825 43.2068 8.07193 43.9258 8.16745V15.1836L39.7812 15.1855C36.5316 15.1855 35.9023 16.7339 35.9023 19.0061V24.0195H43.6966L42.6817 31.8906H35.9023V52H49.13C50.7151 52 52 50.7151 52 49.13V2.8699C52 1.28492 50.7151 0 49.13 0Z" fill="white"/>
</svg>
