<svg width="102" height="31" viewBox="0 0 102 31" fill="none" xmlns="../../../../../../../../../../www.w3.org/2000/svg.html">
<path d="M84.9304 10.9233L89.1493 15.536L93.2109 10.9233H101.884L93.4078 20.3792L102 29.9124H92.9772L88.7979 25.2631L84.657 29.9124H75.9443L84.4615 20.4186L75.9443 10.9233H84.9304Z" fill="white"/>
<path d="M75.9448 10.9232V17.339H66.2986V23.2265H75.9448V29.9122H59.2095V0H75.9448V6.66745H66.2986V10.9232H75.9448Z" fill="white"/>
<path d="M52.1497 0V12.2415H52.0718C50.5077 10.4594 48.5555 9.83955 46.2903 9.83955C41.6492 9.83955 38.1528 12.9709 36.926 17.1085C35.5249 12.5493 31.9151 9.75382 26.5629 9.75382C22.2165 9.75382 18.7839 11.6891 16.9932 14.843V10.9232H8.00853V6.66745H17.8134V0H0V29.9122H8.00853V17.339H15.9916C15.7536 18.2624 15.6261 19.2518 15.6261 20.2961C15.6261 26.5349 20.4315 30.9143 26.5629 30.9143C31.7196 30.9143 35.1183 28.5124 36.9146 24.1344H30.0508C29.1228 25.4513 28.4188 25.8406 26.5629 25.8406C24.4109 25.8406 22.5551 23.9784 22.5551 21.7704H36.5307C37.137 26.726 41.0287 31 46.3682 31C48.6717 31 50.7812 29.8756 52.0704 27.9783H52.1483V29.915H59.2076V0H52.1497ZM22.7789 17.4276C23.2238 15.5274 24.7099 14.2864 26.5643 14.2864C28.6058 14.2864 30.0154 15.4895 30.3865 17.4276C30.5424 17.4276 22.7789 17.4276 22.7789 17.4276ZM47.8642 25.3585C45.2617 25.3585 43.6439 22.9524 43.6439 20.4409C43.6439 17.7564 45.0507 15.1746 47.8642 15.1746C50.7812 15.1746 51.9428 17.7564 51.9428 20.4409C51.9428 22.9861 50.7117 25.3585 47.8642 25.3585Z" fill="white"/>
</svg>
