<svg width="120" height="29" viewBox="0 0 120 29" fill="none" xmlns="../../../../../../../../../../www.w3.org/2000/svg.html">
<path d="M22.0559 8.20934C21.1225 7.2796 20.108 6.56747 19.0326 6.07293C17.9572 5.57839 16.5977 5.34101 15.0353 5.34101C13.7773 5.34101 12.5802 5.55861 11.4642 5.9938C10.3482 6.429 9.37425 7.04223 8.54233 7.83349C7.69013 8.62475 7.02054 9.59404 6.53357 10.7216C6.04659 11.8491 5.80311 13.0954 5.80311 14.4801C5.80311 15.8648 6.04659 17.111 6.53357 18.2386C7.02054 19.3661 7.69013 20.3156 8.54233 21.1069C9.39454 21.8982 10.3888 22.5312 11.5048 22.9664C12.6207 23.4016 13.8382 23.6191 15.1165 23.6191C16.476 23.6191 17.6731 23.4411 18.6876 23.0653C19.7022 22.6894 20.5746 22.1751 21.3051 21.5421C21.7921 21.1069 22.2385 20.5728 22.624 19.9398C23.0095 19.287 23.3139 18.5749 23.5371 17.7836H14.9542V13.036H28.9547C29.0358 13.3525 29.0967 13.7284 29.1576 14.2031C29.2184 14.6779 29.2387 15.1131 29.2387 15.5681C29.2387 17.4473 28.9547 19.1485 28.3865 20.7113C27.8184 22.274 26.9459 23.6389 25.8096 24.8456C24.5313 26.171 23.0095 27.1798 21.2239 27.9117C19.4384 28.6437 17.389 28.9997 15.0962 28.9997C13.0266 28.9997 11.0787 28.6437 9.2525 27.9117C7.42635 27.1798 5.8234 26.171 4.44364 24.8852C3.08417 23.5994 2.00877 22.0762 1.19714 20.3156C0.385521 18.5551 0 16.5967 0 14.4999C0 12.403 0.405812 10.4644 1.19714 8.68409C1.98848 6.90375 3.06388 5.38058 4.44364 4.09478C5.80311 2.80898 7.40606 1.8199 9.2525 1.08798C11.0989 0.356068 13.0468 0 15.0962 0C17.4499 0 19.5398 0.395631 21.3457 1.18689C23.1516 1.97815 24.7139 3.06614 26.0328 4.45084L22.0559 8.20934Z" fill="white"/>
<path d="M58.0327 20.9494C58.0327 23.3825 57.1196 25.3409 55.2934 26.8245C53.447 28.2685 51.1947 29.0005 48.5367 29.0005C46.183 29.0005 44.093 28.3279 42.2872 26.9827C40.4813 25.6376 39.2436 23.7979 38.5537 21.4835L42.0437 20.079C42.2872 20.9098 42.6118 21.6615 43.0379 22.3341C43.464 23.0066 43.951 23.5803 44.5191 24.0551C45.0873 24.5298 45.7163 24.9057 46.4062 25.1826C47.096 25.4596 47.8265 25.598 48.5975 25.598C50.2614 25.598 51.6411 25.1826 52.6962 24.332C53.7514 23.5012 54.2789 22.3736 54.2789 20.9889C54.2789 19.8218 53.8325 18.8327 52.96 18.0019C52.1484 17.2107 50.6063 16.4194 48.3541 15.6677C46.0815 14.8764 44.6612 14.3226 44.093 14.0456C41.0697 12.5422 39.5682 10.3465 39.5682 7.4188C39.5682 5.3813 40.4002 3.64053 42.064 2.19648C43.7684 0.752425 45.838 0.0205078 48.3135 0.0205078C50.4846 0.0205078 52.3716 0.554609 53.9543 1.64259C55.5369 2.7108 56.6123 4.03616 57.1399 5.63846L53.7514 7.00339C53.4267 5.97475 52.7977 5.10436 51.8643 4.43179C50.931 3.73944 49.7744 3.40315 48.4352 3.40315C46.9946 3.40315 45.7975 3.79878 44.8235 4.57026C43.8496 5.2824 43.3626 6.23191 43.3626 7.37924C43.3626 8.32875 43.7481 9.15958 44.5191 9.85193C45.3713 10.5443 47.2178 11.3751 50.0382 12.3246C52.9194 13.2741 54.9891 14.461 56.2268 15.8457C57.4239 17.2304 58.0327 18.9317 58.0327 20.9494Z" fill="white"/>
<path d="M78.3019 28.367H74.8119V25.736H74.6496C74.1017 26.6658 73.2293 27.4372 72.093 28.0703C70.9364 28.6835 69.7393 29 68.5015 29C66.1073 29 64.2811 28.3274 63.0028 27.0021C61.7245 25.6767 61.0752 23.7777 61.0752 21.3248V9.37671H64.7275V21.0874C64.8087 24.1931 66.4116 25.736 69.5364 25.736C70.9973 25.736 72.2147 25.1624 73.1887 24.015C74.1626 22.8677 74.6496 21.483 74.6496 19.8807V9.37671H78.3019V28.367Z" fill="white"/>
<path d="M86.6414 2.82891C86.6414 3.52126 86.3979 4.11471 85.8906 4.60924C85.3833 5.10378 84.7746 5.34116 84.0645 5.34116C83.3543 5.34116 82.7456 5.10378 82.2383 4.60924C81.731 4.11471 81.4875 3.52126 81.4875 2.82891C81.4875 2.13655 81.731 1.54311 82.2383 1.04857C82.7456 0.554029 83.3543 0.31665 84.0645 0.31665C84.7746 0.31665 85.3833 0.554029 85.8906 1.04857C86.3979 1.54311 86.6414 2.13655 86.6414 2.82891ZM85.8906 9.3766V28.3669H82.2383V9.3766H85.8906Z" fill="white"/>
<path d="M97.1115 28.6836C95.5289 28.6836 94.21 28.2088 93.1549 27.2593C92.0998 26.3098 91.5722 24.9647 91.5519 23.2634V12.6408H88.1228V9.37681H91.5316V3.56104H95.1839V9.37681H99.9522V12.6408H95.1839V22.0963C95.1839 23.3624 95.4274 24.213 95.9347 24.6679C96.4419 25.1229 97.0101 25.3405 97.6391 25.3405C97.9231 25.3405 98.2072 25.3009 98.4913 25.2416C98.7753 25.1823 99.0188 25.0833 99.2623 24.9844L100.419 28.1693C99.5058 28.5056 98.3898 28.6836 97.1115 28.6836Z" fill="white"/>
<path d="M110.788 28.9799C107.927 28.9799 105.573 28.0304 103.707 26.1116C101.86 24.1928 100.927 21.7794 100.927 18.8715C100.927 15.9834 101.82 13.5701 103.625 11.6513C105.431 9.73248 107.724 8.76318 110.544 8.76318C113.426 8.76318 115.739 9.67313 117.443 11.493C119.148 13.3129 120 15.8648 120 19.1485L119.959 19.5441H104.66C104.721 21.4036 105.35 22.907 106.568 24.0345C107.785 25.1621 109.246 25.7357 110.95 25.7357C113.284 25.7357 115.11 24.6082 116.429 22.3333L119.696 23.8763C118.823 25.4786 117.606 26.7248 116.064 27.6348C114.501 28.5249 112.736 28.9799 110.788 28.9799ZM104.944 16.5769H116.124C116.023 15.2515 115.475 14.1635 114.481 13.2932C113.487 12.4228 112.147 11.9876 110.484 11.9876C109.104 11.9876 107.927 12.403 106.933 13.2338C105.918 14.0844 105.269 15.1922 104.944 16.5769Z" fill="white"/>
</svg>
