<svg id="Layer_1" xmlns="http://www.w3.org/2000/svg" x="0px" y="0px" viewBox="0 0 256 187"><style>.st0,.st1{fill:#fff}.st1{fill-rule:evenodd;clip-rule:evenodd}</style><path class="st0" d="M132.2,157.3l4.4,11.4h-8.4L132.2,157.3L132.2,157.3z M130.6,153.5l-9.5,25h3.5l2.4-6.8h10.6l2.4,6.8h3.5 l-9.5-25L130.6,153.5L130.6,153.5z M182,178.5h3.3v-25H182V178.5z M148.5,163.8c1.1-1.6,3.3-3,5.4-3c4.4,0,6.5,3,6.5,7.3v10.6h-3.3 v-10.1c0-3.5-1.9-4.9-4.4-4.9c-2.7,0-4.6,2.7-4.6,5.2v9.5H145v-17.4h3.3L148.5,163.8L148.5,163.8z M163.2,173.3c0-3.8,3.5-6,7.6-6 c2.4,0,4.1,0.5,4.6,1.1v-0.5c0-2.7-2.2-4.1-4.4-4.1c-1.9,0-3.5,0.8-4.1,2.4l-3-1.4c0.5-1.6,2.7-4.1,7.1-4.1c4.1,0,7.6,2.4,7.6,7.3 v10.3h-3v-2.4h-0.3c-0.8,1.4-2.7,3-5.7,3C166.2,179.1,163.2,176.9,163.2,173.3 M175.5,171.2c0,0-1.4-1.1-4.1-1.1 c-3.3,0-4.6,1.9-4.6,3.3c0,1.9,1.9,2.7,3.5,2.7C172.8,176.1,175.5,173.9,175.5,171.2"/><path class="st1" d="M189.9,186.1l3.8-9l-6.8-15.8h3.3l5.2,12l5.2-12h3.3l-10.6,24.8L189.9,186.1L189.9,186.1z M237.8,167.1 c-0.8-2.2-2.7-3.5-4.6-3.5c-2.7,0-5.2,2.4-5.2,6c0,3.5,2.4,6,5.2,6c1.9,0,3.8-1.4,4.6-3.3l2.7,1.6c-1.4,3-4.1,4.9-7.3,4.9 c-4.6,0-8.4-4.1-8.4-9.2c0-5.4,3.8-9.2,8.4-9.2c3.3,0,6,1.9,7.3,4.9L237.8,167.1L237.8,167.1z"/><path class="st0" d="M249.5,179.1c4.4,0,6.5-2.4,6.5-5.4c0-6.5-9.5-4.1-9.5-7.9c0-1.4,1.1-2.2,3-2.2s3.8,0.8,4.6,2.2l1.9-1.9 c-1.1-1.4-4.1-3.3-6.8-3.3c-4.1,0-6.3,2.4-6.3,5.4c0,6.3,9.8,4.1,9.8,7.3c0,1.6-1.1,2.7-3.3,2.7s-3.3-1.4-4.4-2.7l-2.4,1.9 C244.3,176.9,246.8,179,249.5,179.1L249.5,179.1z M218.5,178.5h3.3v-17.4h-3.3V178.5z"/><path class="st1" d="M219.8,152.7c1.4,0,2.2,1.1,2.2,2.2c0,1.4-1.1,2.2-2.2,2.2s-2.2-1.1-2.2-2.2 C217.6,153.8,218.7,152.7,219.8,152.7z M215.2,175.8l0.5,2.4h-3.3c-3,0-4.4-2.2-4.4-5.4v-8.4h-3.3v-3.3h3.3v-5.2h3.3v5.2h3.8v3.3 h-3.8v9C211.4,175.8,213.3,175.8,215.2,175.8L215.2,175.8z"/><path class="st0" d="M14.7,163.6v4.1h9.5c-0.3,2.2-1.1,3.8-2.2,4.9c-1.4,1.4-3.5,3-7.3,3c-5.7,0-10.3-4.6-10.3-10.6 c0-5.7,4.6-10.6,10.3-10.6c3.3,0,5.4,1.4,7.1,2.7l2.7-2.7c-2.4-2.2-5.4-4.1-9.8-4.1c-7.9,0-14.7,6.5-14.7,14.4s6.8,14.4,14.7,14.4 c4.4,0,7.6-1.4,10.1-4.1c2.7-2.7,3.5-6.3,3.5-9.2c0-0.8,0-1.9-0.3-2.4H14.7V163.6z M38.9,160.3c-5.2,0-9.2,3.8-9.2,9.2 c0,5.4,4.1,9.2,9.2,9.2c5.1,0,9.2-4,9.2-9.1c0-0.1,0-0.1,0-0.2C48.2,164.1,44.1,160.3,38.9,160.3z M38.9,175.3 c-2.7,0-5.2-2.4-5.2-5.7c0-3.3,2.4-5.7,5.2-5.7s5.2,2.2,5.2,5.7C44.1,173.1,41.6,175.3,38.9,175.3z M83.5,162.2 c-1.1-1.1-2.7-2.2-5.2-2.2c-4.6,0-8.7,4.1-8.7,9.2c0,5.2,4.1,9.2,8.7,9.2c2.2,0,4.1-1.1,4.9-2.2h0.3v1.4c0,3.5-1.9,5.4-4.9,5.4 c-2.4,0-4.1-1.9-4.6-3.3l-3.5,1.4c1.1,2.4,3.8,5.4,8.2,5.4c4.9,0,9-2.7,9-9.8V160h-3.8v2.2L83.5,162.2z M78.9,175.2 c-2.7,0-4.9-2.4-4.9-5.7c0-3.3,2.2-5.7,4.9-5.7s4.9,2.4,4.9,5.7C83.8,172.8,81.6,175.2,78.9,175.2z M59,160.3 c-5.2,0-9.2,3.8-9.2,9.2c0,5.4,4.1,9.2,9.2,9.2c5.1,0,9.2-4,9.2-9.1c0-0.1,0-0.1,0-0.2C68.6,164.1,64.2,160.3,59,160.3z M59,175.3 c-2.7,0-5.2-2.4-5.2-5.7c0-3.3,2.4-5.7,5.2-5.7s5.2,2.2,5.2,5.7C64.2,173.1,61.8,175.3,59,175.3z M90.6,150.5h4.1v28.3h-4.1V150.5z M105.8,175.3c-2.2,0-3.5-1.1-4.6-2.7l12.5-5.2l-0.5-1.1c-0.8-2.2-3.3-6-7.9-6c-4.9,0-8.7,3.8-8.7,9.2c0,5.1,4,9.2,9.1,9.2 c0.1,0,0.1,0,0.2,0c4.4,0,6.8-2.7,7.9-4.1l-3.3-2.2C109.4,174.2,108,175.3,105.8,175.3L105.8,175.3z M105.6,163.8 c1.6,0,3,0.8,3.5,2.2l-8.4,3.5C100.7,165.5,103.4,163.8,105.6,163.8z"/><g><path class="st1" d="M122.1,126H75.6c-5.7,0-10.3-4.6-10.3-10.3V93.4c0-5.7,4.6-10.3,10.3-10.3H105V50.4c0-5.7,4.6-10.3,10.3-10.3 H148v85.7h-25.8V126z"/><path d="M180.6,126H148V10.7c0-5.7,4.6-10.3,10.3-10.3h22.3c5.7,0,10.3,4.6,10.3,10.3v105 C190.7,121.4,186.1,126,180.6,126z" fill-rule="evenodd" clip-rule="evenodd" fill="#efefef"/><path d="M190.7,83v32.6c0,5.7-4.6,10.3-10.3,10.3l0,0h-32.6V40L190.7,83z" fill-rule="evenodd" clip-rule="evenodd" fill="#e2e2e2"/></g></svg>