<svg xmlns="http://www.w3.org/2000/svg" x="0px" y="0px" viewBox="0 0 1484 1080"><style>.st0{fill:#fff}.st1{fill:#efefef}.st2{fill:#d1d3d4}</style><path class="st0" d="M1382.9 1019.7l-1.4-12.5h-.6c-5.5 7.8-16.1 14.7-30.3 14.7-20 0-36.5-14.1-36.5-28.4 0-30.9 27.5-37 65.7-36.8v-2c0-8.2-5.1-22.5-21.9-22.5-16.5 0-17.8 10.9-24.8 15.4l-16.2-6.5c14.7-19.7 28.5-23.3 40.9-23.3 29.8 0 39.7 21.4 39.7 41.2v37c0 8.6.4 17 1.6 23.7L1382.9 1019.7 1382.9 1019.7zM1380.3 969.2c-19.6-.4-50.3 2.6-50.3 21.8 0 11.6 16.2 17.6 25.4 17.6 12.9 0 21-8.2 23.9-16.6.6-1.8 1-3.9 1-5.7V969.2zM1422 948c0-11.8-.2-22-.8-31.3h16l.6 19.7h.8c4.6-13.5 15.6-22 27.8-22 2.1 0 3.5.2 5.2.6v17.2c-1.9-.4-3.7-.6-6.2-.6-12.9 0-22 9.7-24.5 23.4-.4 2.5-.8 5.4-.8 8.5v53.5h-18L1422 948 1422 948zM1077 426.8c6.6 91.9 12.7 147.2 16.4 221 2.4 48.1-16.7 73.3-63.1 73.3h-563c-77.1 0-68.8-75.4-60.5-132.3 7.7-52.6 8.1-112.3 15.8-164.9L1077 426.8zM779.2 1019.1c-39.4 0-69.1-24.9-69.1-70.7 0-43.8 29.7-73.4 73-73.4 0 0 24-1.3 48.1 22.8l-11.1 10.1c0 0-12.2-17.7-36.3-17.7-32.8 0-54.6 20.9-54.6 57.7 0 34.2 19.7 56.2 53.7 56.2 0 0 18.1 5.4 41.5-17.9l10.4 10.8C834.8 996.8 816.2 1019.1 779.2 1019.1L779.2 1019.1zM955.9 875.5h18.2v144.4h-18.2V875.5zM1066 991.4l12.9 5.4c-1.4 7.2-16.5 26.7-38.3 26.7-31.5 0-50.4-20.8-50.4-51.7s18.2-55.2 48.1-55.2c33.4 0 42.3 29.4 42.3 48.3 0 3.8-.4 6.8-.6 8.7h-72c.4 25.2 21.2 35.6 35.1 35.6S1066 991.4 1066 991.4zM1062.6 960.2c.2-11.9-4.9-30.3-25.8-30.3-18.8 0-27.1 17.4-28.6 30.3H1062.6zM1100.5 945.6c0-10.4-.2-18.9-.8-27.2h16.2l1 16.6h.4c5-9.5 16.6-18.9 33.2-18.9 13.9 0 35.5 8.3 35.5 42.7v59.9h-18.2V961c0-16.2-6-29.7-23.2-29.7-12 0-21.4 8.5-24.5 18.7-.8 2.3-1.2 5.4-1.2 8.5v60.4h-18.2v-73.3H1100.5zM1296.5 874.5v119c0 8.7.2 18.7.8 25.4h-16.1l-.8-17.1h-.4c-5.5 11-17.5 19.3-33.6 19.3-23.8 0-42.1-20.1-42.1-50-.2-32.8 20.1-52.9 44.1-52.9 15.1 0 25.2 7.1 29.7 15.1h.4v-58.8H1296.5zM1278.6 960.6c0-2.2-.2-5.3-.8-7.5-2.6-11.4-12.4-20.8-25.8-20.8-18.5 0-29.5 16.3-29.5 38.1 0 19.9 9.8 36.4 29.1 36.4 12 0 23-7.9 26.2-21.4.6-2.5.8-4.9.8-7.7L1278.6 960.6 1278.6 960.6zM917.6 1019.7l-1.4-12.5h-.6c-5.5 7.8-16.1 14.7-30.3 14.7-20 0-36.5-14.1-36.5-28.4 0-30.9 27.5-37 65.7-36.8v-2c0-8.2-5.1-22.5-21.9-22.5-16.5 0-17.8 10.9-24.8 15.4l-16.2-6.5c14.7-19.7 28.5-23.3 40.9-23.3 29.8 0 39.7 21.4 39.7 41.2v37c0 8.6.4 17 1.6 23.7L917.6 1019.7 917.6 1019.7zM915 969.2c-19.6-.4-50.3 2.6-50.3 21.8 0 11.6 16.2 17.6 25.4 17.6 12.9 0 21-8.2 23.9-16.6.6-1.8 1-3.9 1-5.7L915 969.2 915 969.2z"/><path id="path2998_2_" class="st0" d="M171.5,932.5H95.9V955h53.6c-2.6,31.5-28.8,44.9-53.5,44.9c-31.6,0-59.2-24.9-59.2-59.7	c0-34,26.3-60.1,59.3-60.1c25.4,0,40.4,16.2,40.4,16.2l15.7-16.3c0,0-20.2-22.5-57-22.5c-46.8,0-83.1,39.5-83.1,82.2	c0,41.8,34.1,82.6,84.3,82.6c44.1,0,76.4-30.2,76.4-74.9C172.9,938,171.5,932.5,171.5,932.5z"/><path id="path3000_2_" class="st0" d="M233.4,916.3c-31,0-53.3,24.3-53.3,52.6c0,28.7,21.6,53.4,53.6,53.4c29,0,52.8-22.2,52.8-52.8	C286.6,934.4,259,916.3,233.4,916.3L233.4,916.3z M233.7,937.1c15.3,0,29.7,12.3,29.7,32.2c0,19.5-14.4,32.1-29.8,32.1	c-16.9,0-30.3-13.5-30.3-32.3C203.4,950.8,216.6,937.1,233.7,937.1L233.7,937.1z"/><path id="path3005_2_" class="st0" d="M349.3,916.3c-31,0-53.3,24.3-53.3,52.6c0,28.7,21.6,53.4,53.6,53.4c29,0,52.8-22.2,52.8-52.8	C402.5,934.4,374.8,916.3,349.3,916.3z M349.6,937.1c15.3,0,29.7,12.3,29.7,32.2c0,19.5-14.4,32.1-29.8,32.1	c-16.9,0-30.3-13.5-30.3-32.3C319.3,950.8,332.5,937.1,349.6,937.1L349.6,937.1z"/><path id="path3007_2_" class="st0" d="M462.9,916.3c-28.5,0-50.9,24.9-50.9,52.9c0,31.9,26,53,50.4,53c15.1,0,23.1-6,29.1-12.9v10.4	c0,18.3-11.1,29.2-27.9,29.2c-16.2,0-24.3-12-27.1-18.9l-20.4,8.5c7.2,15.3,21.8,31.2,47.7,31.2c28.3,0,49.9-17.8,49.9-55.3v-95.2	h-22.2v9C484.7,921.1,475.3,916.3,462.9,916.3L462.9,916.3z M465,937.1c14,0,28.3,11.9,28.3,32.3c0,20.7-14.3,32.1-28.6,32.1	c-15.2,0-29.3-12.3-29.3-31.9C435.4,949.3,450.1,937.1,465,937.1L465,937.1z"/><path id="path3011_2_" class="st0" d="M612.5,916.2c-26.9,0-49.4,21.4-49.4,52.9c0,33.4,25.1,53.2,52,53.2	c22.4,0,36.2-12.3,44.4-23.3l-18.3-12.2c-4.8,7.4-12.7,14.6-26,14.6c-14.9,0-21.7-8.2-26-16.1l71.1-29.5l-3.7-8.6	C649.7,930.3,633.7,916.2,612.5,916.2L612.5,916.2z M613.4,936.6c9.7,0,16.7,5.1,19.6,11.3l-47.5,19.8	C583.6,952.4,598.1,936.6,613.4,936.6z"/><path id="path3015_2_" class="st0" d="M529.2,1019.2h23.3V863h-23.3V1019.2z"/><path class="st1" d="M462.6,11h573c0,0,39.5,15.1,39.5,50.3v77.5H421.6V52.6C421.6,52.6,431.7,11,462.6,11z"/><circle class="st2" cx="925" cy="70.1" r="31.1"/><circle class="st0" cx="925" cy="70.1" r="28.4"/><circle class="st1" cx="925" cy="70.1" r="23.2"/><circle class="st2" cx="571" cy="70.1" r="31.1"/><circle class="st0" cx="571" cy="70.1" r="28.4"/><circle class="st1" cx="571" cy="70.1" r="23.2"/><path d="M422.4,423.9C409.9,351,388.8,275.2,385,201.4c-2.5-48.1,17.5-73.3,66.1-73.3h596c80.8,0,63.1,75.4,54.4,132.3	c-8.1,52.6-16.1,113.8-24.2,166.4L422.4,423.9L422.4,423.9z" fill="#e0e0e0"/><path d="M614.8,423.6l-0.1,16.8h31.1c29.3,0,63.5,15.6,63.5,51.8c0,24.5-18,60.5-55,60.5c-72.6,0-66.2-54-66.2-54H549	c-0.5,0,1.9,13,2.1,13.9c4.9,23.1,20.8,43.5,39.8,57c20.2,14.3,47.5,13.6,71.1,13.6h2.9c58.6,0,82.2-47.3,82.2-84.5	c0-31.5-13.3-64.6-57.8-77.9c36.6-13.6,52.1-40.9,52.1-72.5c0-37.2-26.5-84.5-85.1-84.5c-23.7,0-48.3,5.3-68.8,17.6	c-18.6,11.2-29.1,32.2-33.6,53c-0.2,0.9-2.6,16.8-2.1,16.8h39.1c0,0-4.5-54,57.5-54c37.1,0,52.2,33.1,52.2,57.6	c0,36.2-34.2,51.8-63.5,51.8h-22.4L614.8,423.6L614.8,423.6z M799,342.7l-0.4-37.7L906,266.6h11.8V584h-37.7V313.3L799,342.7z"/><path d="M654.3,721.1H467.2c-77.1,0-68.8-75.4-60.5-132.3c7.7-52.6,8.1-112.4,15.8-165L654.3,721.1z" fill="#f2f2f2"/></svg>