<svg width="44" height="45" viewBox="0 0 44 45" fill="none" xmlns="../../../../../../../../../../www.w3.org/2000/svg.html">
<path d="M43.5657 18.2812C43.8466 19.7856 44 21.3609 44 23.006C44.0001 35.8594 35.4143 45 22.4495 45C10.0464 45 0 34.931 0 22.5C0 10.069 10.0464 0 22.4495 0C28.5113 0 33.5755 2.23575 37.4628 5.86393L31.1338 12.2065V12.192C28.777 9.94179 25.7887 8.78893 22.4495 8.78893C15.0415 8.78893 9.02212 15.0608 9.02212 22.4862C9.02212 29.9101 15.0414 36.197 22.4495 36.197C29.1704 36.197 33.744 32.3436 34.6855 27.0565H22.4495V18.2812H43.5657Z" fill="white"/>
</svg>
