<svg id="Layer_1" xmlns="http://www.w3.org/2000/svg" x="0px" y="0px" viewBox="0 0 340.9 78.5"><style>.st0{fill:#fff}</style><path id="path3" class="st0" d="M48.5,20.3v13.2l4.6,2.9h0.5L73.4,23c0-1.6-1.5-2.7-2.3-2.7H48.5z"/><path id="path5" class="st0" d="M48.5,38.3l4.2,2.9c0.6,0.4,1.3,0,1.3,0c-0.7,0.4,19.4-12.9,19.4-12.9v24.2c0,2.6-1.7,3.7-3.6,3.7	H48.5V38.3z"/><g id="g7" transform="translate(-13.481 -41.384) scale(3.91787)"><path id="path9" class="st0" d="M33.8,27.2c-1.8,0-3.2-0.6-4.3-1.8c-1.1-1.2-1.6-2.7-1.6-4.6c0-2,0.5-3.7,1.7-4.9 c1.1-1.2,2.6-1.8,4.5-1.8c1.7,0,3.2,0.6,4.2,1.8c1.1,1.2,1.6,2.7,1.6,4.6c0,2.1-0.5,3.7-1.6,4.9C37.1,26.6,35.6,27.2,33.8,27.2z M33.9,15.5c-1.3,0-2.4,0.5-3.2,1.4c-0.8,1-1.2,2.2-1.2,3.8c0,1.6,0.4,2.8,1.2,3.8c0.8,0.9,1.9,1.4,3.2,1.4c1.4,0,2.5-0.5,3.3-1.4 s1.2-2.2,1.2-3.8c0-1.7-0.4-3-1.2-3.9C36.3,15.9,35.2,15.5,33.9,15.5z"/><path id="path11" class="st0" d="M48.9,27h-1.4v-1.4c-0.6,1.1-1.5,1.6-2.8,1.6c-2.2,0-3.2-1.3-3.2-3.8V18h1.4v5.2 c0,1.9,0.7,2.9,2.2,2.9c0.7,0,1.3-0.3,1.7-0.8c0.5-0.5,0.7-1.2,0.7-2V18h1.4L48.9,27L48.9,27z"/><path id="path13" class="st0" d="M55.6,26.9c-0.3,0.2-0.8,0.3-1.4,0.3c-1.6,0-2.4-0.9-2.4-2.6v-5.3h-1.6V18h1.6v-2.2l1.4-0.5V18 h2.3v1.2h-2.3v5.1c0,0.6,0.1,1,0.3,1.3s0.5,0.4,1,0.4c0.4,0,0.7-0.1,0.9-0.3C55.4,25.7,55.6,26.9,55.6,26.9z"/></g><g id="g23" transform="translate(-13.481 -41.384) scale(3.91787)"><path id="path25" class="st0" d="M10.3,18.8c-0.4,0-0.7,0.2-0.9,0.5s-0.3,0.8-0.3,1.4s0.1,1,0.3,1.4c0.2,0.3,0.5,0.5,0.8,0.5 c0.4,0,0.6-0.2,0.9-0.5c0.2-0.3,0.3-0.8,0.3-1.3c0-0.6-0.1-1.1-0.3-1.4C10.9,19,10.6,18.8,10.3,18.8z"/><path id="path27" class="st0" d="M5.2,14v13.1l10,2.1V12.1L5.2,14z M11.9,22.8c-0.4,0.6-1,0.8-1.7,0.8S9,23.3,8.6,22.8 C8.2,22.3,8,21.6,8,20.7s0.2-1.7,0.6-2.2c0.4-0.6,1-0.8,1.7-0.8s1.2,0.3,1.6,0.8c0.4,0.5,0.6,1.3,0.6,2.1 C12.5,21.5,12.3,22.3,11.9,22.8z"/></g><g id="g29" transform="translate(-13.481 -41.384) scale(3.91787)"><path id="path31" class="st0" d="M58.9,27h-1.4V13.6h1.4V27z"/><path id="path33" class="st0" d="M65.2,27.2c-1.3,0-2.4-0.4-3.2-1.3c-0.8-0.8-1.2-2-1.2-3.4c0-1.5,0.4-2.7,1.2-3.6s1.9-1.3,3.4-1.3 c1.3,0,2.4,0.4,3.2,1.2c0.8,0.8,1.1,2,1.1,3.4s-0.4,2.6-1.2,3.5C67.7,26.8,66.6,27.2,65.2,27.2L65.2,27.2z M65.3,19 c-0.9,0-1.7,0.3-2.2,0.9s-0.8,1.5-0.8,2.6s0.3,1.9,0.8,2.5s1.3,0.9,2.2,0.9s1.7-0.3,2.2-0.9s0.8-1.5,0.8-2.6s-0.3-2-0.8-2.6 C67,19.3,66.2,19,65.3,19z"/><path id="path35" class="st0" d="M75.3,27.2c-1.3,0-2.4-0.4-3.2-1.3c-0.8-0.8-1.2-2-1.2-3.4c0-1.5,0.4-2.7,1.2-3.6 c0.8-0.9,1.9-1.3,3.4-1.3c1.3,0,2.4,0.4,3.2,1.2c0.8,0.8,1.1,2,1.1,3.4s-0.4,2.6-1.2,3.5S76.7,27.2,75.3,27.2z M75.4,19 c-0.9,0-1.7,0.3-2.2,0.9s-0.8,1.5-0.8,2.6s0.3,1.9,0.8,2.5s1.3,0.9,2.2,0.9c0.9,0,1.7-0.3,2.2-0.9s0.8-1.5,0.8-2.6s-0.3-2-0.8-2.6 C77.1,19.3,76.4,19,75.4,19z"/><path id="path37" class="st0" d="M89.2,27h-2l-4-4.3V27h-1.4V13.6h1.4v8.5L87,18h1.9l-4.2,4.4L89.2,27L89.2,27z"/></g></svg>