<svg width="116" height="31" viewBox="0 0 116 31" fill="none" xmlns="../../../../../../../../../../www.w3.org/2000/svg.html">
<path d="M13.6805 -0.00012207H4.81322C4.20632 -0.00012207 3.69033 0.449141 3.59565 1.05964L0.00931156 24.226C-0.0620178 24.683 0.285542 25.0952 0.74057 25.0952H4.97393C5.58072 25.0952 6.09671 24.6461 6.1914 24.0345L7.15863 17.7862C7.25204 17.1745 7.76931 16.7253 8.37482 16.7253H11.1819C17.023 16.7253 20.3941 13.8455 21.2746 8.13875C21.6713 5.64202 21.2914 3.68037 20.1439 2.30655C18.8836 0.7978 16.6483 -0.00012207 13.6805 -0.00012207ZM14.7035 8.46112C14.2186 11.7029 11.7874 11.7029 9.43673 11.7029H8.09869L9.03738 5.64872C9.09319 5.28275 9.40429 5.01327 9.76739 5.01327H10.3806C11.9819 5.01327 13.4925 5.01327 14.273 5.94316C14.7385 6.49807 14.8811 7.32234 14.7035 8.46112Z" fill="#EBEBEB"/>
<path d="M40.6176 8.52938H36.248C35.8758 8.52938 35.5542 8.80146 35.4966 9.17089L35.3034 10.3925L34.9977 9.94966C34.0517 8.57732 31.9421 8.11865 29.8366 8.11865C25.0078 8.11865 20.8834 11.7741 20.0802 16.9019C19.6626 19.4597 20.2564 21.9056 21.7081 23.6112C23.0397 25.1795 24.945 25.833 27.2121 25.833C31.103 25.833 33.2605 23.3326 33.2605 23.3326L33.0656 24.5462C32.9922 25.0103 33.3499 25.4264 33.8156 25.4264H37.7516C38.3774 25.4264 38.9058 24.9729 39.0046 24.3555L41.3662 9.40688C41.4411 8.94676 41.0848 8.52938 40.6176 8.52938ZM34.5267 17.0299C34.1052 19.525 32.1236 21.2002 29.5966 21.2002C28.3277 21.2002 27.3135 20.7934 26.6623 20.0225C26.0165 19.257 25.771 18.1675 25.9765 16.9538C26.3701 14.48 28.385 12.7504 30.8733 12.7504C32.1144 12.7504 33.123 13.1624 33.7875 13.9398C34.4534 14.7253 34.7174 15.8216 34.5267 17.0299Z" fill="#EBEBEB"/>
<path d="M63.5341 8.11896H59.2331C58.8227 8.11896 58.4371 8.32766 58.2045 8.67691L52.2723 17.6216L49.7579 9.02605C49.5997 8.48816 49.1149 8.11896 48.566 8.11896H44.3394C43.8256 8.11896 43.469 8.63264 43.6323 9.12765L48.3699 23.3595L43.9159 29.7958C43.5655 30.3027 43.9183 31 44.5237 31H48.8196C49.2272 31 49.609 30.7965 49.8402 30.4541L64.1458 9.3164C64.4882 8.81059 64.1368 8.11896 63.5341 8.11896Z" fill="#EBEBEB"/>
<path d="M78.4325 -0.00012207H69.2577C68.6314 -0.00012207 68.0974 0.449141 67.9995 1.05964L64.2893 24.226C64.2157 24.683 64.5751 25.0952 65.0433 25.0952H69.7514C70.1886 25.0952 70.563 24.781 70.6313 24.3529L71.6841 17.7862C71.7807 17.1745 72.3161 16.7253 72.9424 16.7253H75.8451C81.8891 16.7253 85.3753 13.8455 86.2874 8.13875C86.6994 5.64202 86.3036 3.68037 85.1165 2.30655C83.814 0.7978 81.5029 -0.00012207 78.4325 -0.00012207ZM79.4909 8.46112C78.9905 11.7029 76.4757 11.7029 74.0423 11.7029H72.6595L73.632 5.64872C73.6896 5.28275 74.0087 5.01327 74.3857 5.01327H75.0201C76.6755 5.01327 78.2394 5.01327 79.0468 5.94316C79.5284 6.49807 79.6745 7.32234 79.4909 8.46112Z" fill="white"/>
<path d="M105.632 8.52938H101.265C100.89 8.52938 100.571 8.80146 100.515 9.17089L100.321 10.3925L100.014 9.94966C99.0682 8.57732 96.9599 8.11865 94.8543 8.11865C90.0251 8.11865 85.9022 11.7741 85.0987 16.9019C84.6825 19.4597 85.2735 21.9056 86.7254 23.6112C88.0598 25.1795 89.9624 25.833 92.2295 25.833C96.1205 25.833 98.2781 23.3326 98.2781 23.3326L98.0833 24.5462C98.01 25.0103 98.3675 25.4264 98.8361 25.4264H102.771C103.394 25.4264 103.925 24.9729 104.023 24.3555L106.386 9.40688C106.458 8.94676 106.1 8.52938 105.632 8.52938ZM99.5404 17.0299C99.1214 19.525 97.1372 21.2002 94.6101 21.2002C93.3437 21.2002 92.3269 20.7934 91.6757 20.0225C91.0301 19.257 90.7871 18.1675 90.99 16.9538C91.3862 14.48 93.3985 12.7504 95.8872 12.7504C97.128 12.7504 98.1367 13.1624 98.8013 13.9398C99.4697 14.7253 99.7339 15.8216 99.5404 17.0299Z" fill="white"/>
<path d="M110.199 0.636532L106.405 24.2261C106.33 24.683 106.693 25.0952 107.164 25.0952H110.979C111.613 25.0952 112.151 24.6462 112.249 24.0346L115.99 0.870523C116.065 0.41329 115.703 -0.00012207 115.231 -0.00012207H110.959C110.582 0.000980377 110.257 0.2708 110.199 0.636532Z" fill="white"/>
</svg>
