<svg width="52" height="52" viewBox="0 0 52 52" fill="none" xmlns="../../../../../../../../../../www.w3.org/2000/svg.html">
<path fill-rule="evenodd" clip-rule="evenodd" d="M0 26.0026C0.1352 18.6231 2.7404 12.4604 7.8208 7.51995C12.9012 2.57946 18.9592 0.0676068 26 0C33.5816 0.135214 39.7956 2.72507 44.6368 7.76958C49.478 12.8141 51.9324 18.8935 52 26.0026C51.8648 33.3145 49.2596 39.4615 44.1792 44.4384C39.0988 49.4101 33.0408 51.9324 26 52C23.5612 52 21.1276 51.6256 18.6888 50.8819C19.162 50.1382 19.6352 49.2905 20.1084 48.344C20.6492 47.1947 21.3252 45.0261 22.1416 41.8434C22.3444 40.9645 22.6512 39.7788 23.0568 38.2862C23.53 39.0975 24.3412 39.8412 25.4956 40.5225C28.5428 41.9422 31.7564 41.807 35.1416 40.1168C38.662 38.0834 41.1008 34.9371 42.4528 30.6727C43.6696 26.2054 43.5188 22.0554 41.9952 18.233C40.4716 14.4054 37.7468 11.6492 33.8208 9.9538C28.8808 8.53405 24.0708 8.68487 19.4012 10.4114C14.7316 12.138 11.4816 15.1023 9.6512 19.2991C9.178 20.8541 8.892 22.3986 8.788 23.9224C8.684 25.4461 8.736 26.9335 8.9388 28.3896C9.1416 29.8458 9.6512 31.1511 10.4624 32.3004C11.2736 33.4497 12.3604 34.3338 13.7124 34.9423C14.0504 35.0775 14.3208 35.0775 14.5236 34.9423C14.794 34.8071 15.0644 34.2662 15.3348 33.3197C15.6052 32.3732 15.7092 31.7284 15.6416 31.3903C15.574 31.2551 15.4388 31.0159 15.236 30.6779C13.8164 28.374 13.338 25.9558 13.8164 23.4179C14.2896 20.8801 15.34 18.7271 16.9624 16.9693C19.4688 14.7331 22.3964 13.5162 25.7452 13.3133C29.094 13.1105 31.9592 14.0258 34.3252 16.054C35.6096 17.5414 36.4416 19.3355 36.8108 21.4365C37.18 23.5376 37.1852 25.5502 36.8108 27.4795C36.4364 29.4089 35.776 31.2187 34.8296 32.9141C33.1344 35.556 31.1376 36.9081 28.8392 36.9757C27.4872 36.9081 26.3848 36.3828 25.5372 35.3999C24.6896 34.417 24.4348 33.2833 24.778 31.9988C24.9132 31.2551 25.3188 29.799 25.9948 27.6304C26.6708 25.4617 27.0452 23.8392 27.1128 22.7575C26.91 20.1832 25.7244 18.8623 23.556 18.7947C21.8608 18.9975 20.6128 19.762 19.7964 21.0777C18.98 22.3934 18.5432 23.9068 18.4756 25.597C18.6784 27.5628 18.9852 28.9149 19.3908 29.6586C18.6472 32.7061 18.07 35.1451 17.6644 36.9705C17.5292 37.4437 17.1548 38.8999 16.5464 41.3389C15.938 43.778 15.6 45.6398 15.5324 46.9243V49.769C10.7276 47.5328 6.9316 44.3032 4.16 40.07C1.3884 35.8368 0 31.1459 0 26.0026Z" fill="white"/>
</svg>
