<svg version="1.1" xmlns="http://www.w3.org/2000/svg" x="0" y="0" viewBox="0 0 220 55" xml:space="preserve"><style>.st2{fill:#242627}.st3{fill:#fff}</style><g id="layer3"><g id="g3486"><g id="g3478"><path id="path3299" class="st3" d="M110.1 19.1c-2.2.1-4.2.9-5.9 2.2-.6.4-1.3 1.1-1.7 1.8-.9 1.2-1.6 2.5-2 3.9-1.2 4-1 8.4.9 12.1.7 1.3 1.5 2.5 2.7 3.4 1 .6 2.1 1.4 3.3 1.7 3.2 1 7 .5 9.7-1.6.7-.4 1.3-1.2 1.8-1.9 0-.2.5-.9.6-.3v12.1h3.7V19.6h-3.7V24c-.7-1-1.2-2-2.2-2.6-2-1.6-4.6-2.5-7.2-2.3zm1.3 3.3c1.7 0 3.6.5 4.8 1.5 1 .8 1.7 1.6 2.2 2.7 1.4 2.9 1.5 6.4.4 9.5-.5 1.5-1.4 2.7-2.6 3.7-1.8 1.5-4.3 1.8-6.6 1.4-1.5-.3-2.8-1.1-3.7-2.2-1.8-2-2.3-4.8-2.3-7.4.1-2.2.5-4.6 1.9-6.4.9-1.1 2.1-2.1 3.6-2.5.8-.3 1.5-.3 2.3-.3z"/><path id="path3297" class="st3" d="M83.2 9.7c-2.8.1-5.6.8-7.8 2.6-.5.3-1 .9-1.3 1.3-1.4 1.7-2.1 4-1.8 6.1.1 1.6.7 3.1 1.7 4.3.3.5.9 1 1.4 1.3 2.9 2.2 6.6 2.7 10 3.7 2.1.6 4.6 1.1 6 3 1.2 1.4 1.1 3.6.5 5.3-.6 1.4-1.8 2.4-3 3.1-2.7 1.2-5.8 1.1-8.6.3-2.1-.7-3.9-1.9-5.3-3.7-.3-.6-.7-.9-1.2-.3-.8.6-1.6 1.2-2.5 1.7.7 1 1.4 2 2.4 2.8 1.6 1.2 3.3 2.3 5.3 2.8 3.7 1.1 7.8 1 11.3-.5 1.4-.7 2.8-1.5 3.8-2.8 1.3-1.6 2.2-3.7 2.2-5.8.1-2-.5-4.1-1.9-5.6-.3-.4-.7-.8-1.2-1.1-.7-.6-1.4-1-2.2-1.4-3.7-1.8-7.8-2.2-11.6-3.8-1.1-.6-2.3-1.4-2.9-2.5-.9-2-.2-4.5 1.5-5.7 1.5-1.2 3.6-1.6 5.5-1.6 3.3 0 6.7 1.4 8.8 4.1 1-.8 2-1.5 3-2.2-.9-1.2-2-2.2-3.2-3-2.5-1.8-5.7-2.6-8.9-2.4z"/><path id="path3301" class="st3" d="M129.3 35.6c0 2.1.4 4.4 1.8 6.1.6.9 1.7 1.7 2.7 2.2 2.6 1.2 5.8 1 8.4-.2 1.2-.6 2.3-1.4 3.1-2.5.3-.3.7-1.2.9-1.3v4.2h3.7V19.6h-3.7c0 5 .1 10-.1 15-.3 2-1.2 4-2.9 5.2-2 1.5-4.9 1.9-7.3 1-1.7-.7-2.6-2.6-2.7-4.4-.3-3.1-.1-6.3-.1-9.4v-7.4h-3.7c-.1 5.3-.1 10.6-.1 16z"/><path id="path3303" class="st3" d="M164.8 19.1c-3.2.1-6.3 1.1-8.9 3 .5.9 1.1 1.8 1.6 2.7 2.2-1.7 4.9-2.3 7.6-2.4 2 0 4.2.3 5.4 2.1.6 1.2.5 2.9-.6 3.7-.9.9-2.5 1.2-3.8 1.5-2.5.5-5.2.6-7.5 1.6-1.1.5-2.1 1.2-2.7 2.2-1.3 1.6-1.4 3.9-1 5.9.2 1.1.8 2.1 1.5 3 .4.5 1.1.9 1.7 1.3 2.3 1.3 5.1 1.4 7.6.9 1.5-.3 2.9-1.1 4-2.1.6-.4.7-1 1.2-1.3.5.1.1.9.2 1.2v1.9h3.5c0-6.4.1-12.7-.1-19.1-.3-1.7-1.2-3.6-2.7-4.4-2.1-1.4-4.6-1.9-7-1.7zm6 11.5c-.1 2.6.4 5.3-.9 7.7-1.1 1.9-3.1 3-5.3 3.2-1.9.2-4.1-.1-5.4-1.6-.9-1.1-1.1-2.8-.7-4.2.3-1.2 1.4-1.9 2.6-2.3 2.7-.9 5.6-.9 8.3-2 .5-.3 1-.6 1.4-1v.2z"/><path id="path3305" class="st3" d="M191.4 19.2c-2 .2-3.9 1-5.2 2.3-.6.7-1.1 1.5-1.7 2.3v-4.1h-3.7v24.5h3.7c0-4.8-.1-9.6.1-14.3.3-2.3 1.3-4.7 3.2-6 1.8-1.3 4.3-1.4 6.3-.6.4-.2.3-1 .5-1.4.2-.6.3-1.2.5-1.8-1.2-.8-2.5-1-3.7-.9z"/><path id="path3307" class="st3" d="M207.3 19.1c-2.1 0-4.2.8-6 2l-1.2.9c-.9.9-1.6 2-2.3 3.1-1.8 3.6-2 7.9-.9 11.7.5 1.7 1.6 3.4 2.7 4.7.5.5 1 .9 1.4 1.2 1.9 1.3 4.1 2.1 6.4 2.1 3.1.2 6.3-.6 8.6-2.5.7-.5 1.4-1.1 2-1.8-.8-.8-1.6-1.5-2.5-2.2-1.3 1.6-3.1 2.8-5.2 3.1-2.8.5-6.1-.1-8.1-2.3-1.6-1.6-2.2-4-2.2-6.2.3-.6 1.2-.1 1.8-.2h17.1c.4-3.3-.3-6.8-2.5-9.5-.5-.8-1.3-1.3-2.1-1.9-1.8-1.8-4.4-2.4-7-2.2zm1.4 3.1c2.4.1 4.8 1.5 5.9 3.7.5 1.2.9 2.4.9 3.7h-15.2c.2-1.8.7-3.7 2-5 .2-.4.9-.8 1.3-1.2 1.5-1 3.3-1.3 5.1-1.2z"/></g><path id="path3010" class="st3" d="M45.3.9H9.9C5 .9 1 4.9 1 9.8v35.5c0 4.9 4 8.9 8.9 8.9h35.5c4.9 0 8.9-4 8.9-8.9V9.8c-.1-4.9-4.1-8.9-9-8.9m-.8 40.7c0 1.5-1.3 2.8-2.8 2.8H13.5c-1.6 0-2.8-1.3-2.8-2.8V13.4c0-1.6 1.3-2.8 2.8-2.8h28.2c1.6 0 2.8 1.3 2.8 2.8v28.2zm-9.6-8.5c0 .9-.7 1.6-1.6 1.6H22c-.9 0-1.6-.7-1.6-1.6V21.9c0-.9.7-1.6 1.6-1.6h11.3c.9 0 1.6.7 1.6 1.6v11.2z"/></g></g></svg>