<svg width="185" height="31" viewBox="0 0 185 31" fill="none" xmlns="../../../../../../../../../../www.w3.org/2000/svg.html">
<path d="M49.8854 0.000205589L6.48048 0.00220977L6.45434 0.146735C6.45434 0.146735 31.9718 5.37635 32.4773 5.46628C38.3401 6.49919 38.1587 7.6282 38.1587 7.6282C42.2671 7.60765 42.7718 7.77354 43.49 8.37093C45.6498 10.1721 42.1386 15.479 42.1386 15.479C41.6366 15.849 3.67812 30.4804 3.67812 30.4804H43.3907L49.8844 0.000750313L49.8854 0.000205589ZM58.2073 0.000205589C58.2073 0.000205589 57.5454 3.10881 56.5581 7.74663C55.9674 10.4227 57.7756 11.6349 60.7874 11.6349C63.8108 11.6349 66.1086 10.4226 66.684 7.74663C68.3611 -0.000204859 66.6661 7.74703 68.3612 0.000205589H65.8333C65.8333 0.000205589 64.5564 5.95975 64.335 6.97981C63.954 8.7669 63.0096 9.83424 61.1575 9.83424C59.2229 9.81883 58.8264 8.75015 59.2228 6.97981C59.1778 7.15839 60.7271 0.000205589 60.7271 0.000205589H58.2073ZM70.7827 0.000205589L68.3533 11.428H70.5916L72.3593 2.94683H72.4096L75.2372 11.428H78.4147L80.8401 0.000205589H78.6058L76.8018 8.57574H76.7716L74.0546 0.000205589H70.7827ZM83.2634 0.000205589L80.8401 11.428H83.3619L85.7893 0.000205589H83.2634ZM87.4806 0.000205589L87.0804 1.81885H90.6421L88.5968 11.4281H91.1208L93.1641 1.81885H96.7237L97.1078 0.000205589H87.4806ZM98.803 0.000205589L96.3595 11.428H104.657L105.043 9.60937H99.2817L99.9373 6.48586H104.965L105.329 4.79764H100.303L100.939 1.81875H106.707L107.087 0.000102794L98.803 0.000205589ZM108.927 0.000205589L106.503 11.428H111.674C114.868 11.428 117.934 9.3256 118.622 5.21317C119.114 2.29687 117.948 0 114.483 0L108.927 0.000205589ZM127.906 0.000205589C124.939 0.000205589 123.464 1.05162 123.244 2.69605C122.877 5.43383 127.73 7.0608 127.365 8.7001C127.14 9.65849 125.959 9.60944 125.002 9.60944H121.891L121.505 11.4281H125.37C128.532 11.4281 129.905 10.2957 130.158 8.73223C130.619 5.92765 125.689 4.47931 126.074 2.66396C126.2 2.1051 126.82 1.81885 128.193 1.81885H130.892L131.288 0.000205589H127.906ZM132.585 0.000205589L132.189 1.81885H135.749L133.706 11.4281H136.227L138.271 1.81885H141.832L142.217 0.000205589H132.585ZM144.889 0.000205589L138.329 11.428H140.853L145.881 2.26634L146.888 9.60926H143.276L142.289 11.4279H149.694L147.908 0.000102794L144.889 0.000205589ZM150.693 0.000205589L150.295 1.81885H153.854L151.811 11.4281H154.333L156.376 1.81885H159.934L160.32 0.000205589H150.693ZM162.003 0.000205589L159.558 11.428H167.859L168.245 9.60937H162.478L163.133 6.48586H168.163L168.529 4.79764H163.501L164.141 1.81875H169.903L170.287 0.000102794L162.003 0.000205589ZM175.838 0.000205589C172.867 0.000205589 171.398 1.05162 171.174 2.69605C170.807 5.43383 175.66 7.0608 175.295 8.7001C175.07 9.65849 173.887 9.60944 172.93 9.60944H169.817L169.434 11.4281H173.296C176.458 11.4281 177.833 10.2957 178.09 8.73223C178.55 5.92765 173.619 4.47931 174 2.66396C174.128 2.1051 174.752 1.81885 176.125 1.81885H178.818L179.222 0.000205589H175.838ZM111.082 1.81885H113.657C115.746 1.81885 116.492 3.36585 116.175 5.18121C115.729 7.74807 114.084 9.60947 111.229 9.60947H109.425L111.082 1.81885ZM27.3307 7.04816C26.1799 7.03914 25.3701 7.05563 25.2774 7.05016H4.98972H4.98569L0 30.4885C0 30.4885 15.2711 23.008 17.139 22.0496C20.9654 20.0878 26.2572 17.4952 31.1477 15.8328C32.0795 15.518 36.0712 14.2893 38.3957 13.8756C39.2966 13.715 39.6803 13.5621 39.6687 13.3938C39.6339 12.9133 38.7272 12.8817 37.193 12.9562C32.5119 13.1759 23.5416 16.7419 20.9592 18.1012L18.0451 9.08409H36.6698C37.2969 7.32999 30.7832 7.07519 27.3307 7.04816ZM37.2051 9.22015C37.0699 9.22015 36.9539 9.31128 36.7968 9.52326C36.654 9.70697 36.538 9.83079 36.1674 10.0171C35.592 10.2997 34.088 10.4578 33.384 10.5169C32.7083 10.5734 32.5248 10.6415 32.5132 10.9023C32.5068 11.1349 32.614 11.2677 33.5832 11.2677C35.8137 11.2677 39.8284 10.4279 41.0382 10.812C41.6766 11.0163 41.1639 12.1516 40.64 13.6444C40.4367 14.2213 40.8347 14.1806 41.0664 13.9275C41.2981 13.6731 42.3388 11.7707 42.452 10.802C42.6129 9.42603 41.4302 9.22017 39.7994 9.22017L37.2051 9.22015ZM70.2031 18.8454C66.6598 18.8454 63.7075 20.6936 62.8426 24.7572C62.1591 28.0075 64.1392 30.6829 67.6671 30.6829C71.244 30.6829 74.1171 28.9171 75.0116 24.7572C75.7439 21.3643 73.7155 18.8454 70.2031 18.8454ZM171.262 18.8454C167.748 18.8454 164.367 20.6602 163.503 24.7572C162.626 28.8516 165.227 30.6829 168.742 30.6829C169.713 30.6829 170.645 30.5733 171.569 30.432L172.191 28.4668C171.282 28.6916 170.32 28.8683 169.122 28.8683C166.838 28.8683 165.549 27.3395 166.091 24.7572C166.634 22.1749 168.581 20.6602 170.861 20.6602C172.03 20.6602 172.826 20.8194 173.544 21.0275L173.769 19.1004C172.957 18.9578 172.111 18.8454 171.262 18.8454ZM81.1815 19.0502C78.2096 19.0502 76.7384 20.1029 76.5158 21.746C76.149 24.4876 81.0015 26.1122 80.6386 27.7541C80.4146 28.7099 79.2311 28.6614 78.2735 28.6614H75.1604L74.7742 30.4781H78.6416C81.8027 30.4781 83.1752 29.3464 83.43 27.7842C83.8934 24.981 78.9612 23.5292 79.3434 21.714C79.4709 21.1551 80.094 20.8689 81.4712 20.8689H84.164L84.5662 19.0502L81.1815 19.0502ZM85.8593 19.0502L85.4611 20.8688H89.0207L86.9774 30.4781H89.4993L91.5466 20.8688H95.1042L95.4843 19.0502H85.8593ZM122.71 19.0502C119.739 19.0502 118.268 20.1029 118.047 21.746C117.677 24.4876 122.53 26.1122 122.167 27.7541C121.943 28.7099 120.76 28.6614 119.802 28.6614H116.689L116.305 30.4781H120.17C123.33 30.4781 124.704 29.3464 124.959 27.7842C125.422 24.981 120.491 23.5292 120.868 21.714C120.997 21.1551 121.623 20.8689 122.996 20.8689H125.693L126.091 19.0502L122.71 19.0502ZM128.277 19.0502L125.834 30.478H134.137L134.519 28.6613H128.756L129.411 25.5359H134.441L134.807 23.8457H129.779L130.415 20.8687H136.181L136.561 19.0501L128.277 19.0502ZM138.395 19.0502L135.967 30.478H138.489L140.533 20.8527H142.799C144.203 20.8527 144.33 21.632 144.187 22.3502C143.918 23.7043 142.735 24.2452 141.442 24.2452C141.202 24.2452 140.8 24.2619 140.482 24.2131L142.56 30.4781H145.321L143.437 25.5519C145.114 25.3143 146.553 24.1199 146.709 21.9668C146.855 20.0538 145.961 19.05 143.728 19.05L138.395 19.0502ZM175.807 19.0502L173.37 30.478H181.671L182.053 28.6613H176.292L176.945 25.5359H181.975L182.341 23.8457H177.313L177.953 20.8687H183.715L184.097 19.0501L175.807 19.0502ZM54.1612 19.0523L51.7338 30.478H54.2577L56.301 20.8687H58.3583C59.2876 20.8687 59.9225 21.3294 59.6534 22.573C59.5119 23.2577 58.8864 24.4379 57.1617 24.4379C56.7795 24.4379 56.3655 24.3897 56.0476 24.3576L56.1743 26.0176C56.5399 26.0498 56.9726 26.11 57.373 26.11C59.6395 26.11 61.6344 24.8051 62.099 22.6352C62.4014 21.2027 62.1132 19.0521 59.6394 19.0521L54.1612 19.0523ZM98.1798 19.0523L91.6237 30.478H94.1415L99.1753 21.3144L100.177 28.6613H96.5709L95.5814 30.478H102.986L101.202 19.0523H98.1798ZM106.729 19.0523L104.303 30.478H112.048L112.446 28.6613H107.226L109.269 19.052L106.729 19.0523ZM148.049 19.0523L149.772 30.478H152.755L159.273 19.0523H156.781L151.753 28.2179L150.571 19.0523H148.049ZM160.793 19.0523L158.368 30.478H160.89L163.317 19.0523H160.793ZM69.8047 20.6607C72.1357 20.6607 72.9194 22.444 72.4251 24.7577C71.8781 27.34 70.3472 28.8688 68.0651 28.8688C65.7007 28.8688 64.9182 26.9726 65.4124 24.7577C66.0032 22.1755 67.5228 20.6607 69.8047 20.6607Z" fill="white"/>
<path d="M55.0588 14.8189L54.8799 15.6667H184.825L185 14.8189H55.0678H55.0588Z" fill="white"/>
</svg>
