<svg viewBox="0 0 59.5 45.3" xmlns="../../../../../../../../../../../www.w3.org/2000/svg.html"><g transform="translate(0 6)"><path d="m2.2 1.3h43.7c.6 0 1.2.5 1.2 1.2v34.7c0 .6-.5 1.2-1.2 1.2h-43.7c-.6 0-1.2-.5-1.2-1.2v-34.7c0-.6.5-1.2 1.2-1.2z" fill="none" stroke="#b2b2b2" stroke-width="2"/><g fill="none" stroke="#b2b2b2" stroke-width="2" transform="translate(8 13)"><path d="m2.6 1.3h8.9c.8 0 1.5.7 1.5 1.6v8.9c0 .9-.7 1.6-1.6 1.6h-8.8c-.9 0-1.6-.7-1.6-1.6v-8.9c0-.9.7-1.6 1.6-1.6z"/><path d="m2.6 19.3h8.9c.9 0 1.6.7 1.6 1.6v2.8c0 .9-.7 1.6-1.6 1.6h-8.9c-.9 0-1.6-.7-1.6-1.6v-2.8c0-.9.7-1.6 1.6-1.6z"/><path d="m20.6 1.3h8.8c.9 0 1.6.7 1.6 1.6v8.9c0 .9-.7 1.6-1.6 1.6h-8.8c-.9 0-1.6-.7-1.6-1.6v-8.9c0-.9.7-1.6 1.6-1.6z"/><path d="m20.6 19.3h8.8c.9 0 1.6.7 1.6 1.6v2.8c0 .9-.7 1.6-1.6 1.6h-8.8c-.9 0-1.6-.7-1.6-1.6v-2.8c0-.9.7-1.6 1.6-1.6z"/></g><path d="m19 7.3h10v1.6h-10z" fill="#b2b2b2"/></g><g transform="translate(36 1)"><circle cx="11.1" cy="11.4" fill="#fff" r="11.1" stroke="#b2b2b2" stroke-width="2"/><text fill="#b2b2b2" font-family="Gotham-Bold" font-size="14" letter-spacing="2" transform="translate(6.705 16.333)">$</text></g></svg>