<svg viewBox="0 0 47 37" xmlns="../../../../../../../../../../../www.w3.org/2000/svg.html"><g stroke="#b2b2b2" stroke-width="2" transform=""><path d="m17.9 1h27.1c.6 0 1 .4 1 .9v19.1c0 .5-.4.9-.9.9h-27.2c-.5 0-.9-.4-.9-.9v-19.1c0-.5.4-.9.9-.9z" fill="none"/><path d="m9.9 8h27.1c.6 0 1 .4 1 .9v19.1c0 .5-.4.9-.9.9h-27.2c-.5.1-.9-.3-.9-.8v-19.2c0-.5.4-.9.9-.9z" fill="#fff"/><g transform="translate(0 14)"><path d="m1.9 1h27.1c.6 0 1 .4 1 .9v19.1c0 .5-.4.9-.9.9h-27.2c-.5.1-.9-.3-.9-.8v-19.2c0-.5.4-.9.9-.9z" fill="#fff"/><g fill="none"><path d="m1 1 14 14 13-13.6" stroke-linecap="round" stroke-linejoin="round"/><path d="m28.5 20.4-9-8.9" stroke-linecap="square"/><path d="m1.5 20.4 9-8.9" stroke-linecap="square"/></g></g></g></svg>