<svg viewBox="0 0 39.4 37" xmlns="../../../../../../../../../../../www.w3.org/2000/svg.html"><g fill="#b2b2b2" transform=""><g transform="translate(4.4 12)"><path d="m3.3.8v18.2h-1.9v-18.2z"/><path d="m7.6.8v11.7h-1.8v-11.7z"/><path d="m12 .8v11.7h-1.9v-11.7z"/><path d="m16.3.8v11.7h-1.9v-11.7z"/><path d="m20.6.8v11.7h-1.8v-11.7z"/><path d="m25 .8v11.7h-1.9v-11.7z"/><path d="m29.3.8v18.2h-1.9v-18.2z"/><path d="m7.9 17.9 1.6-1.2c.4-.3.6-.6.6-.8 0-.3-.2-.5-.5-.5s-.6.1-.9.5l-.8-.7c.5-.6.9-.9 1.7-.9.9 0 1.6.6 1.6 1.4 0 .7-.4 1.1-1 1.6l-.7.5h1.8v1h-3.4zm5.8.2.7-.7c.3.3.6.5 1 .5.3 0 .6-.2.6-.5s-.3-.5-.7-.5h-.5l-.2-.6 1-.9h-1.6v-.9h3.1v.8l-1.1.9c.6.1 1.1.5 1.1 1.2 0 .9-.7 1.4-1.7 1.4-.7.1-1.3-.2-1.7-.7z"/><path d="m21.5 17.9h-2.1l-.2-.8 2.3-2.7h1.1v2.7h.6v.9h-.6v.9h-1.1zm0-.8v-1.3l-1.1 1.3z"/></g><path d="m1.2 6.9h37.3v1.9h-37.3z"/><path d="m36.6 37.1h-33.8c-1.5 0-2.8-1.3-2.8-2.8v-31.5c0-1.5 1.3-2.8 2.8-2.8h33.8c1.5 0 2.8 1.3 2.8 2.8v31.5c0 1.5-1.3 2.8-2.8 2.8zm-33.8-35.1c-.4 0-.8.4-.8.8v31.5c0 .4.4.8.8.8h33.8c.4 0 .8-.4.8-.8v-31.5c0-.4-.4-.8-.8-.8z"/></g></svg>