<svg id="Layer_1" data-name="Layer 1" xmlns="http://www.w3.org/2000/svg" viewBox="0 0 26.73 22"><defs><style>.cls-1{fill:#231f20;}</style></defs><title>cart-white</title><g id="Current"><g id="_Mastersheet" data-name=" Mastersheet"><g id="Cart"><path class="cls-1" d="M18.46,22A2.5,2.5,0,1,1,21,19.5,2.5,2.5,0,0,1,18.46,22Zm0-3a0.5,0.5,0,1,0,.5.5A0.5,0.5,0,0,0,18.46,19Z"/><path class="cls-1" d="M4.46,22A2.5,2.5,0,1,1,7,19.5,2.5,2.5,0,0,1,4.46,22Zm0-3a0.5,0.5,0,1,0,.5.5A0.5,0.5,0,0,0,4.46,19Z"/><polygon class="cls-1" points="18.65 14 3.2 14 0 2.26 1.93 1.74 4.73 12 17.28 12 21.88 0 26.73 0 26.73 2 23.25 2 18.65 14"/><rect id="Rectangle-117" class="cls-1" x="13.96" y="4" width="2" height="2"/><rect id="Rectangle-117-Copy-3" class="cls-1" x="13.96" y="7" width="2" height="2"/><rect id="Rectangle-117-Copy" class="cls-1" x="9.96" y="4" width="2" height="2"/><rect id="Rectangle-117-Copy-4" class="cls-1" x="9.96" y="7" width="2" height="2"/><rect id="Rectangle-117-Copy-2" class="cls-1" x="5.96" y="7" width="2" height="2"/><rect id="Rectangle-117-Copy-5" class="cls-1" x="5.96" y="4" width="2" height="2"/></g></g></g></svg>