<svg id="Layer_1" xmlns="http://www.w3.org/2000/svg" viewBox="0 0 27 27"><style>.st0{fill:none;stroke:#000;stroke-width:2}</style><g id="Current"><g id="_Mastersheet" transform="translate(-1262 -810)"><path id="Path-343-Copy" class="st0" d="M1283 828.2l3.9 3.9-4 4"/><path id="Path-343-Copy-2" class="st0" d="M1283 811l3.9 3.9-4 4"/><path id="Path-345" class="st0" d="M1262 832h6"/><path id="Path-345-Copy-2" class="st0" d="M1279 832h6"/><path id="Path-345-Copy" class="st0" d="M1279 815h6"/><path id="Path-345-Copy-3" class="st0" d="M1262 815h6"/><path id="Oval-74" class="st0" d="M1268 832c1.7 0 3-1.3 3-3"/><path id="Oval-74-Copy-3" class="st0" d="M1271 818c0-1.7-1.3-3-3-3"/><path id="Oval-74-Copy-2" class="st0" d="M1276 829c0 1.7 1.3 3 3 3"/><path id="Oval-74-Copy" class="st0" d="M1279 815c-1.7 0-3 1.3-3 3 0 .8-5 11-5 11"/></g></g></svg>
