<?xml version="1.0" encoding="utf-8"?>
<!-- Generator: Adobe Illustrator 23.0.2, SVG Export Plug-In . SVG Version: 6.00 Build 0)  -->
<svg version="1.1" xmlns="http://www.w3.org/2000/svg" xmlns:xlink="http://www.w3.org/1999/xlink" x="0px" y="0px"
	 viewBox="0 0 215.2 33.5" style="enable-background:new 0 0 215.2 33.5;" xml:space="preserve">
<style type="text/css">
	.st0{display:none;}
	.st1{fill:#040404;}
	.st2{fill:#010101;}
	.st3{fill:none;stroke:#000000;stroke-width:0.9909;stroke-miterlimit:10;}
</style>
<g id="Layer_2" class="st0">
	
		<image style="display:inline;overflow:visible;" width="478" height="43" id="Squarespace-engineering-blog-logo_xA0_Image" xlink:href="BC56C83D70B2FFEF.png"  transform="matrix(0.3441 0 0 0.3441 20.7046 8.6907)">
	</image>
</g>
<g id="Layer_1">
	<g>
		<g>
			<g>
				<path class="st1" d="M7.7,19.1l7.7-7.7c0.5-0.5,1.2-0.8,1.9-0.8s1.4,0.3,1.9,0.8l0.6,0.6l1.2-1.2l-0.6-0.6
					C19.6,9.4,18.5,9,17.3,9c-1.2,0-2.3,0.5-3.1,1.3l-7.7,7.7L7.7,19.1z"/>
				<path class="st1" d="M17.9,14l-1.2-1.2l-7.7,7.7c-1.1,1.1-2.8,1.1-3.9,0c-1.1-1.1-1.1-2.8,0-3.9l6.6-6.6l-1.2-1.2L4,15.3
					c-1.7,1.7-1.7,4.6,0,6.3c0.8,0.8,2,1.3,3.1,1.3c1.2,0,2.3-0.5,3.1-1.3L17.9,14z"/>
				<path class="st1" d="M25.5,15.3c-0.8-0.8-2-1.3-3.1-1.3c-1.2,0-2.3,0.5-3.1,1.3L11.6,23l1.2,1.2l7.7-7.7c1.1-1.1,2.8-1.1,3.9,0
					c0.5,0.5,0.8,1.2,0.8,1.9c0,0.7-0.3,1.4-0.8,1.9L17.7,27l1.2,1.2l6.6-6.6C27.3,19.9,27.3,17.1,25.5,15.3z"/>
				<path class="st1" d="M21.8,17.9l-7.7,7.7c-1.1,1.1-2.8,1.1-3.9,0l-0.6-0.6l-1.2,1.2l0.6,0.6C9.9,27.6,11,28,12.2,28
					s2.3-0.5,3.1-1.3l7.7-7.7L21.8,17.9z"/>
			</g>
		</g>
		<g>
			<path class="st2" d="M33.8,20.5c0.1,0.5,0.3,0.9,0.7,1.1c0.4,0.3,0.8,0.4,1.4,0.4c0.6,0,1-0.1,1.4-0.4c0.3-0.3,0.5-0.6,0.5-1.1
				c0-0.2,0-0.4-0.1-0.5c-0.1-0.1-0.2-0.3-0.4-0.4c-0.1-0.1-0.3-0.2-0.6-0.3c-0.2-0.1-0.5-0.1-0.8-0.2L35.3,19
				c-0.4-0.1-0.8-0.3-1.2-0.4c-0.3-0.2-0.6-0.4-0.9-0.6c-0.2-0.2-0.4-0.5-0.6-0.8c-0.1-0.3-0.2-0.6-0.2-1c0-0.4,0.1-0.8,0.2-1.1
				c0.2-0.3,0.4-0.6,0.7-0.9c0.3-0.2,0.7-0.4,1.1-0.6c0.4-0.1,0.9-0.2,1.4-0.2c1,0,1.8,0.2,2.4,0.7c0.6,0.5,0.9,1.1,1,1.9l-1.6,0.1
				c-0.1-0.4-0.3-0.7-0.6-0.9c-0.3-0.2-0.7-0.3-1.2-0.3c-0.5,0-0.9,0.1-1.2,0.3c-0.3,0.2-0.4,0.5-0.4,0.9c0,0.2,0,0.4,0.1,0.5
				c0.1,0.1,0.2,0.3,0.3,0.4c0.1,0.1,0.3,0.2,0.6,0.3c0.2,0.1,0.5,0.2,0.7,0.3l0.7,0.2c0.4,0.1,0.8,0.3,1.2,0.4s0.6,0.3,0.9,0.5
				c0.2,0.2,0.4,0.5,0.6,0.7c0.1,0.3,0.2,0.6,0.2,1.1c0,0.4-0.1,0.9-0.3,1.2c-0.2,0.4-0.4,0.7-0.8,1c-0.3,0.3-0.7,0.5-1.2,0.6
				c-0.4,0.1-0.9,0.2-1.5,0.2c-1,0-1.8-0.2-2.5-0.7c-0.7-0.5-1.1-1.2-1.2-2.1L33.8,20.5z"/>
			<path class="st2" d="M46.4,13.5c0.7,0,1.4,0.1,2,0.4c0.6,0.2,1.1,0.6,1.5,1c0.4,0.4,0.7,1,1,1.6c0.2,0.6,0.3,1.3,0.3,2
				c0,0.8-0.1,1.5-0.4,2.1s-0.6,1.2-1.1,1.6l1.3,1.5v0.5h-1.6l-0.9-1.1c-0.3,0.1-0.7,0.3-1,0.3c-0.4,0.1-0.7,0.1-1.2,0.1
				c-0.7,0-1.4-0.1-2-0.4c-0.6-0.2-1.1-0.6-1.5-1s-0.7-1-1-1.6c-0.2-0.6-0.3-1.3-0.3-2c0-0.7,0.1-1.4,0.3-2c0.2-0.6,0.6-1.1,1-1.6
				c0.4-0.4,0.9-0.8,1.5-1C45.1,13.6,45.7,13.5,46.4,13.5z M46.4,14.9c-0.5,0-0.9,0.1-1.3,0.3c-0.4,0.2-0.7,0.4-1,0.7
				c-0.3,0.3-0.5,0.7-0.6,1.1s-0.2,0.9-0.2,1.4c0,0.5,0.1,1,0.2,1.4c0.1,0.4,0.3,0.8,0.6,1.1c0.3,0.3,0.6,0.6,1,0.8
				c0.4,0.2,0.8,0.3,1.3,0.3c0.5,0,0.9-0.1,1.3-0.3c0.4-0.2,0.7-0.4,1-0.7c0.3-0.3,0.5-0.7,0.6-1.1c0.1-0.4,0.2-0.9,0.2-1.5
				c0-0.5-0.1-1-0.2-1.4c-0.1-0.4-0.3-0.8-0.6-1.1s-0.6-0.6-1-0.7C47.3,15,46.9,14.9,46.4,14.9z"/>
			<path class="st2" d="M57.7,22.2c0.7,0,1.2-0.2,1.6-0.6c0.4-0.4,0.6-1.1,0.6-2v-5.9h1.7v5.9c0,0.7-0.1,1.3-0.3,1.8
				c-0.2,0.5-0.4,0.9-0.8,1.2c-0.3,0.3-0.7,0.6-1.2,0.7c-0.5,0.1-1,0.2-1.6,0.2c-0.6,0-1.2-0.1-1.6-0.2c-0.5-0.1-0.9-0.4-1.2-0.7
				c-0.3-0.3-0.6-0.7-0.8-1.2c-0.2-0.5-0.3-1.1-0.3-1.8v-5.9h1.7v5.9c0,0.9,0.2,1.5,0.6,2C56.5,21.9,57,22.2,57.7,22.2z"/>
			<path class="st2" d="M63.3,22.8l3.4-9.2h2.5l3.4,9.2v0.5H71l-1-2.8h-4.2l-1,2.8h-1.6L63.3,22.8L63.3,22.8z M66.4,19.1h3.2
				L69,17.6c-0.2-0.6-0.4-1.1-0.5-1.5c-0.1-0.4-0.2-0.7-0.3-1h-0.4c0,0.1-0.1,0.3-0.2,0.5c0,0.1-0.1,0.3-0.2,0.5
				c-0.1,0.2-0.1,0.4-0.2,0.6c-0.1,0.2-0.2,0.5-0.3,0.8L66.4,19.1z"/>
			<path class="st2" d="M82.2,23.3h-1.6l-3-3.8h-1.1v3.8h-1.7v-9.7H78c0.5,0,1,0,1.4,0.1c0.4,0.1,0.8,0.2,1.2,0.5
				c0.8,0.5,1.1,1.3,1.1,2.3c0,0.4-0.1,0.8-0.2,1.2c-0.1,0.3-0.3,0.6-0.5,0.8c-0.2,0.2-0.5,0.4-0.7,0.6c-0.3,0.1-0.6,0.2-0.9,0.3
				l2.8,3.5L82.2,23.3L82.2,23.3z M76.5,18.1H78c0.6,0,1.2-0.1,1.5-0.4c0.4-0.2,0.6-0.6,0.6-1.2c0-0.5-0.2-0.9-0.6-1.1
				c-0.4-0.2-0.9-0.3-1.5-0.3h-1.5L76.5,18.1L76.5,18.1z"/>
			<path class="st2" d="M84.3,13.6h6.3v1.5H86v2.5h4.3v1.5H86v2.7h4.7v1.5h-6.4L84.3,13.6L84.3,13.6z"/>
			<path class="st2" d="M94.4,20.5c0.1,0.5,0.3,0.9,0.7,1.1c0.4,0.3,0.8,0.4,1.4,0.4c0.6,0,1-0.1,1.4-0.4c0.3-0.3,0.5-0.6,0.5-1.1
				c0-0.2,0-0.4-0.1-0.5c-0.1-0.1-0.2-0.3-0.4-0.4c-0.1-0.1-0.3-0.2-0.6-0.3c-0.2-0.1-0.5-0.1-0.8-0.2L95.9,19
				c-0.4-0.1-0.8-0.3-1.2-0.4c-0.3-0.2-0.6-0.4-0.9-0.6c-0.2-0.2-0.4-0.5-0.6-0.8c-0.1-0.3-0.2-0.6-0.2-1c0-0.4,0.1-0.8,0.2-1.1
				c0.2-0.3,0.4-0.6,0.7-0.9c0.3-0.2,0.7-0.4,1.1-0.6c0.4-0.1,0.9-0.2,1.4-0.2c1,0,1.8,0.2,2.4,0.7c0.6,0.5,0.9,1.1,1,1.9l-1.6,0.1
				c-0.1-0.4-0.3-0.7-0.6-0.9c-0.3-0.2-0.7-0.3-1.2-0.3c-0.5,0-0.9,0.1-1.2,0.3c-0.3,0.2-0.4,0.5-0.4,0.9c0,0.2,0,0.4,0.1,0.5
				c0.1,0.1,0.2,0.3,0.3,0.4s0.3,0.2,0.6,0.3c0.2,0.1,0.5,0.2,0.7,0.3l0.7,0.2c0.4,0.1,0.8,0.3,1.2,0.4s0.6,0.3,0.9,0.5
				c0.2,0.2,0.4,0.5,0.6,0.7c0.1,0.3,0.2,0.6,0.2,1.1c0,0.4-0.1,0.9-0.3,1.2c-0.2,0.4-0.4,0.7-0.8,1c-0.3,0.3-0.7,0.5-1.2,0.6
				c-0.4,0.1-0.9,0.2-1.5,0.2c-1,0-1.8-0.2-2.5-0.7c-0.7-0.5-1.1-1.2-1.2-2.1L94.4,20.5z"/>
			<path class="st2" d="M102.6,13.6h3.5c0.7,0,1.2,0.1,1.6,0.2c0.4,0.1,0.8,0.4,1.1,0.6c0.3,0.3,0.5,0.6,0.6,1
				c0.1,0.4,0.2,0.8,0.2,1.2c0,0.5-0.1,0.9-0.2,1.3s-0.4,0.7-0.7,0.9c-0.3,0.2-0.7,0.4-1.1,0.5s-1,0.2-1.5,0.2h-1.7v3.7h-1.7
				L102.6,13.6L102.6,13.6z M104.3,18.1h1.6c0.3,0,0.6,0,0.8-0.1c0.2,0,0.5-0.1,0.6-0.2c0.2-0.1,0.3-0.3,0.4-0.5
				c0.1-0.2,0.1-0.4,0.1-0.7c0-0.3,0-0.5-0.1-0.7c-0.1-0.2-0.2-0.4-0.4-0.5c-0.2-0.1-0.4-0.2-0.6-0.2c-0.2,0-0.5-0.1-0.8-0.1h-1.6
				L104.3,18.1L104.3,18.1z"/>
			<path class="st2" d="M110.1,22.8l3.4-9.2h2.5l3.4,9.2v0.5h-1.7l-1-2.8h-4.2l-1,2.8h-1.6V22.8z M113.2,19.1h3.2l-0.5-1.5
				c-0.2-0.6-0.4-1.1-0.5-1.5c-0.1-0.4-0.2-0.7-0.3-1h-0.4c0,0.1-0.1,0.3-0.2,0.5c0,0.1-0.1,0.3-0.2,0.5c-0.1,0.2-0.1,0.4-0.2,0.6
				c-0.1,0.2-0.2,0.5-0.3,0.8L113.2,19.1z"/>
			<path class="st2" d="M129.7,20.8c-0.1,0.4-0.3,0.7-0.6,1.1c-0.2,0.3-0.5,0.6-0.9,0.9c-0.3,0.2-0.8,0.4-1.2,0.6
				c-0.5,0.1-1,0.2-1.5,0.2c-0.7,0-1.4-0.1-2-0.4c-0.6-0.2-1.1-0.6-1.5-1c-0.4-0.4-0.7-1-1-1.6c-0.2-0.6-0.3-1.3-0.3-2
				c0-0.7,0.1-1.4,0.3-2c0.2-0.6,0.5-1.2,1-1.6s0.9-0.8,1.5-1.1c0.6-0.3,1.3-0.4,2-0.4c1.1,0,1.9,0.2,2.7,0.7c0.7,0.5,1.2,1.2,1.5,2
				l-1.7,0.3c-0.2-0.5-0.6-0.9-1-1.2c-0.4-0.3-0.9-0.4-1.5-0.4c-0.5,0-0.9,0.1-1.3,0.3c-0.4,0.2-0.7,0.4-0.9,0.8
				c-0.3,0.3-0.4,0.7-0.6,1.1s-0.2,0.9-0.2,1.4c0,0.5,0.1,1,0.2,1.4c0.1,0.4,0.3,0.8,0.6,1.1c0.3,0.3,0.6,0.6,1,0.7
				c0.4,0.2,0.8,0.3,1.3,0.3c0.6,0,1.2-0.1,1.6-0.5c0.4-0.3,0.7-0.7,1-1.1L129.7,20.8z"/>
			<path class="st2" d="M132,13.6h6.3v1.5h-4.6v2.5h4.3v1.5h-4.3v2.7h4.7v1.5H132L132,13.6L132,13.6z"/>
		</g>
	</g>
	<line class="st3" x1="154.4" y1="10.4" x2="142.8" y2="25.8"/>
	<g>
		<path d="M157.3,16.3h3.7v0.9h-2.8v1.5h2.6v0.9h-2.6v1.6h2.8v0.9h-3.8L157.3,16.3L157.3,16.3z"/>
		<path d="M162.2,16.3h1.3l1.9,3.3c0.2,0.4,0.5,0.9,0.7,1.2h0c0-0.4,0-1,0-1.6v-2.9h1V22h-1.2l-1.9-3.2c-0.3-0.5-0.6-1.1-0.7-1.3h0
			c0,0.3,0,0.9,0,1.3V22h-1L162.2,16.3L162.2,16.3z"/>
		<path d="M173.4,19l0.3,0.4c0,1.8-1.3,2.8-2.8,2.8c-1.8,0-2.9-1.2-2.9-3c0-1.7,1.1-3,2.9-3c1.3,0,2.2,0.7,2.6,1.6l-1,0.2
			c-0.3-0.6-0.8-1-1.6-1c-1.2,0-1.9,0.9-1.9,2.1c0,1.3,0.7,2.1,1.9,2.1c1.1,0,1.7-0.6,1.8-1.5h-2.3V19L173.4,19L173.4,19z"/>
		<path d="M174.7,16.3h1V22h-1V16.3z"/>
		<path d="M177,16.3h1.3l1.9,3.3c0.2,0.4,0.5,0.9,0.7,1.2h0c0-0.4,0-1,0-1.6v-2.9h1V22h-1.2l-1.9-3.2c-0.3-0.5-0.6-1.1-0.7-1.3h0
			c0,0.3,0,0.9,0,1.3V22h-1L177,16.3L177,16.3z"/>
		<path d="M183.2,16.3h3.7v0.9h-2.8v1.5h2.6v0.9h-2.6v1.6h2.8v0.9h-3.8L183.2,16.3L183.2,16.3z"/>
		<path d="M188,16.3h3.7v0.9H189v1.5h2.6v0.9H189v1.6h2.8v0.9H188L188,16.3L188,16.3z"/>
		<path d="M197.3,22h-1l-1.8-2.3h-0.7V22h-1v-5.8h1.9c0.6,0,1.1,0,1.6,0.3c0.5,0.3,0.7,0.8,0.7,1.4c0,1.1-0.7,1.6-1.4,1.7l1.7,2.1
			L197.3,22L197.3,22z M193.9,18.9h0.9c0.8,0,1.3-0.3,1.3-0.9c0-0.7-0.5-0.9-1.3-0.9h-0.9V18.9z"/>
		<path d="M198.2,16.3h1V22h-1V16.3z"/>
		<path d="M200.5,16.3h1.3l1.9,3.3c0.2,0.4,0.5,0.9,0.7,1.2h0c0-0.4,0-1,0-1.6v-2.9h1V22h-1.2l-1.9-3.2c-0.3-0.5-0.6-1.1-0.7-1.3h0
			c0,0.3,0,0.9,0,1.3V22h-1L200.5,16.3L200.5,16.3z"/>
		<path d="M211.8,19l0.3,0.4c0,1.8-1.3,2.8-2.8,2.8c-1.8,0-2.9-1.2-2.9-3c0-1.7,1.1-3,2.9-3c1.3,0,2.2,0.7,2.6,1.6l-1,0.2
			c-0.3-0.6-0.8-1-1.6-1c-1.2,0-1.9,0.9-1.9,2.1c0,1.3,0.7,2.1,1.9,2.1c1.1,0,1.7-0.6,1.8-1.5h-2.3V19L211.8,19L211.8,19z"/>
	</g>
</g>
</svg>
